<?xml version="1.0" encoding="UTF-8"?>
<svg version="1.1" xmlns="http://www.w3.org/2000/svg" width="1024" height="1024">
<path d="M0 0 C2.08842855 -0.00187331 4.17685676 -0.00417606 6.26528442 -0.00686532 C11.94646007 -0.0129258 17.62762089 -0.01285659 23.30879903 -0.01167095 C29.45912348 -0.01146546 35.60944335 -0.01699977 41.75976562 -0.02172852 C53.78947412 -0.03000461 65.81917639 -0.03279503 77.84888698 -0.03334089 C87.63930868 -0.03380222 97.42972881 -0.0358698 107.22014999 -0.03904152 C110.04869171 -0.03993921 112.87723342 -0.04082903 115.70577514 -0.0417164 C116.76087396 -0.04204797 116.76087396 -0.04204797 117.83728792 -0.04238624 C137.5995234 -0.04853294 157.36175834 -0.05248758 177.12399483 -0.05204296 C178.23956772 -0.05201959 178.23956772 -0.05201959 179.37767745 -0.05199575 C183.14623722 -0.05191266 186.914797 -0.05181362 190.68335678 -0.05171105 C191.80581554 -0.05168113 191.80581554 -0.05168113 192.95095024 -0.05165061 C194.46420661 -0.05161017 195.97746297 -0.05156837 197.49071934 -0.05152521 C221.00406282 -0.05091325 244.51739185 -0.05840754 268.0307312 -0.07209778 C294.51505974 -0.08751187 320.99937878 -0.09606076 347.48371208 -0.09513456 C350.31665476 -0.09505994 353.14959745 -0.09501122 355.98254013 -0.09498024 C356.67995819 -0.09496859 357.37737624 -0.09495693 358.09592817 -0.09494492 C369.24239793 -0.09491435 380.38885497 -0.10125692 391.53532097 -0.1099125 C402.77139445 -0.11845616 414.00744991 -0.11915794 425.24352647 -0.11280318 C431.31154257 -0.10956629 437.3795134 -0.10937702 443.44752502 -0.11815643 C474.90695913 -0.16083705 506.40559194 -0.10318362 537.66305542 3.94621277 C538.32776855 4.02986084 538.99248169 4.11350891 539.67733765 4.19969177 C591.15880466 10.71091253 636.83983402 28.98177772 674.53805542 65.13371277 C675.0693103 65.63773621 675.60056519 66.14175964 676.1479187 66.66105652 C729.16674341 117.17617076 742.03627267 187.68610193 744.53805542 258.13371277 C744.69961679 265.28671321 744.67795296 272.44124731 744.67176819 279.59565735 C744.6736415 281.6840859 744.67594425 283.77251411 744.67863351 285.86094177 C744.68469399 291.54211742 744.68462477 297.22327824 744.68343914 302.90445638 C744.68323365 309.05478083 744.68876796 315.2051007 744.6934967 321.35542297 C744.7017728 333.38513147 744.70456321 345.41483373 744.70510908 357.44454433 C744.70557041 367.23496603 744.70763799 377.02538616 744.71080971 386.81580734 C744.7117074 389.64434906 744.71259722 392.47289077 744.71348459 395.30143249 C744.71370563 396.00483171 744.71392668 396.70823092 744.71415443 397.43294526 C744.72030113 417.19518075 744.72425577 436.95741569 744.72381115 456.71965218 C744.72379557 457.46336744 744.72377999 458.20708271 744.72376394 458.9733348 C744.72368085 462.74189457 744.72358181 466.51045435 744.72347923 470.27901413 C744.72344932 471.40147289 744.72344932 471.40147289 744.72341879 472.54660759 C744.72337836 474.05986396 744.72333656 475.57312032 744.7232934 477.08637669 C744.72268144 500.59972017 744.73017572 524.1130492 744.74386597 547.62638855 C744.75928006 574.11071709 744.76782895 600.59503613 744.76690274 627.07936943 C744.76682813 629.91231211 744.76677941 632.74525479 744.76674843 635.57819748 C744.76673095 636.62432456 744.76673095 636.62432456 744.76671311 637.69158552 C744.76668254 648.83805528 744.7730251 659.98451232 744.78168069 671.13097831 C744.79022435 682.3670518 744.79092613 693.60310726 744.78457137 704.83918382 C744.78133448 710.90719992 744.78114521 716.97517075 744.78992462 723.04318237 C744.83260524 754.50261648 744.77495181 786.00124929 740.72555542 817.25871277 C740.60008331 818.25578247 740.60008331 818.25578247 740.47207642 819.272995 C733.96085566 870.75446201 715.68999047 916.43549137 679.53805542 954.13371277 C679.03403198 954.66496765 678.53000854 955.19622253 678.01071167 955.74357605 C627.20747946 1009.06479889 556.32936562 1021.70316476 485.53805542 1024.13371277 C478.37241043 1024.29240791 471.20552152 1024.27365892 464.03851318 1024.26742554 C461.95818387 1024.26929926 459.8778549 1024.27160218 457.79752648 1024.27429086 C452.14334392 1024.28034616 446.48917627 1024.28028275 440.83499122 1024.27909648 C434.71193199 1024.27889087 428.58887735 1024.28442656 422.46582031 1024.28915405 C410.49139297 1024.29742725 398.51697189 1024.30022043 386.54254244 1024.30076643 C376.79648964 1024.30122789 367.05043842 1024.30329614 357.30438614 1024.30646706 C354.48791858 1024.30736476 351.67145101 1024.30825457 348.85498345 1024.30914193 C348.15457307 1024.30936298 347.45416268 1024.30958403 346.73252774 1024.30981178 C327.0563852 1024.3159578 307.3802432 1024.31991319 287.70409966 1024.3194685 C286.96374135 1024.31945292 286.22338304 1024.31943734 285.46058963 1024.31942129 C281.70910174 1024.3193382 277.95761385 1024.31923916 274.20612596 1024.31913658 C273.46121953 1024.31911664 272.7163131 1024.31909669 271.94883375 1024.31907614 C270.44245217 1024.3190357 268.93607058 1024.31899391 267.429689 1024.31895075 C244.02358486 1024.3183388 220.61749525 1024.32583315 197.21139526 1024.33952332 C170.84351226 1024.35493989 144.4756388 1024.36348615 118.10775101 1024.36256009 C115.28688248 1024.36248548 112.46601395 1024.36243676 109.64514542 1024.36240578 C108.95070759 1024.36239412 108.25626976 1024.36238247 107.54078836 1024.36237046 C96.44571185 1024.3623399 85.35064812 1024.36868029 74.25557539 1024.37733804 C63.07001597 1024.38588479 51.88447465 1024.38658123 40.69891213 1024.38022872 C34.65911883 1024.3769934 28.61937101 1024.37679665 22.57958221 1024.38558197 C-19.30059887 1024.44252872 -19.30059887 1024.44252872 -40.01831055 1023.23181152 C-40.6990088 1023.19214632 -41.37970706 1023.15248113 -42.08103253 1023.11161395 C-104.99587093 1019.31310711 -163.10634691 1003.58792027 -209.46194458 959.13371277 C-209.99319946 958.62968933 -210.52445435 958.12566589 -211.07180786 957.60636902 C-252.49123301 918.14289534 -270.11360128 865.87369476 -276.46194458 810.13371277 C-276.54499818 809.42032753 -276.62805179 808.7069423 -276.71362216 807.97193933 C-277.37044946 801.96058573 -277.60625928 796.04390777 -277.59616566 789.99980831 C-277.59851789 789.02565331 -277.60087012 788.05149831 -277.60329363 787.04782346 C-277.60993374 783.79388465 -277.60952692 780.53998624 -277.6091156 777.28604126 C-277.61241737 774.92504394 -277.6161436 772.56404719 -277.62025708 770.20305115 C-277.62920338 764.40097701 -277.63349915 758.59891252 -277.63577605 752.79683224 C-277.63874759 745.84279739 -277.64745082 738.88877256 -277.65619033 731.93474299 C-277.6770022 715.12406233 -277.68750135 698.31337995 -277.69631993 681.5026894 C-277.7005331 673.53866207 -277.70575433 665.57463548 -277.71100446 657.61060877 C-277.72889627 630.31340023 -277.74388722 603.01619146 -277.75132465 575.71897793 C-277.7517994 574.00615841 -277.75227529 572.2933389 -277.75275232 570.58051938 C-277.75298869 569.73116448 -277.75322507 568.88180957 -277.75346861 568.00671663 C-277.75466973 563.70391521 -277.7558852 559.40111379 -277.7571106 555.09831238 C-277.75747082 553.81748416 -277.75747082 553.81748416 -277.75783832 552.51078062 C-277.76571841 524.87121099 -277.78912271 497.23168445 -277.82166654 469.59213361 C-277.85606171 440.3263915 -277.87568496 411.06067456 -277.87896889 381.79491192 C-277.87938638 378.57397877 -277.87986593 375.35304564 -277.88039207 372.1321125 C-277.88051527 371.33910779 -277.88063846 370.54610308 -277.88076538 369.72906792 C-277.88308591 357.03273177 -277.89868181 344.3364461 -277.91923392 331.64012787 C-277.93961741 318.84351188 -277.94491072 306.04695572 -277.93546329 293.25032651 C-277.93074575 286.33387632 -277.93221922 279.41757506 -277.95222473 272.50114822 C-278.15265642 197.49589767 -268.36621374 126.34356903 -214.46194458 70.13371277 C-213.95792114 69.60245789 -213.45389771 69.071203 -212.93460083 68.52384949 C-167.54096515 20.88034221 -105.34262541 4.97295786 -41.46194458 1.13371277 C-40.78560345 1.09300068 -40.10926232 1.05228859 -39.41242601 1.0103428 C-26.2656826 0.23809213 -13.1672332 -0.01138267 0 0 Z " fill="#EAEAEA" transform="translate(278.4619445800781,-0.1337127685546875)"/>
<path d="M0 0 C3.21577624 0.03134953 6.43105799 0.04101278 9.64697266 0.046875 C27.12894438 0.10880515 43.71364705 1.11315455 60.83056641 4.78125 C61.65917175 4.95665314 62.4877771 5.13205627 63.3414917 5.31277466 C77.90528442 8.42424326 91.69578281 12.51214167 105.45556641 18.28125 C106.3326123 18.64331543 107.2096582 19.00538086 108.11328125 19.37841797 C132.02863512 29.35622828 154.66807287 42.47934939 174.45556641 59.28125 C175.52690173 60.16830613 176.59853922 61.0549974 177.67041016 61.94140625 C190.11460166 72.32317855 201.47860817 83.48664282 211.45556641 96.28125 C212.32216942 97.3478897 213.19075444 98.41292134 214.06103516 99.4765625 C223.40895729 110.99064905 231.32684235 123.32965524 238.64306641 136.21875 C239.02994629 136.89921387 239.41682617 137.57967773 239.81542969 138.28076172 C242.45556641 143.0286218 242.45556641 143.0286218 242.45556641 145.28125 C241.26705078 145.31863281 240.07853516 145.35601562 238.85400391 145.39453125 C180.90371013 147.54938945 123.47003775 167.37984595 78.88256836 205.01733398 C77.24853516 206.359375 77.24853516 206.359375 74.45556641 208.28125 C71.11050645 207.16623002 70.69935724 206.54025803 68.64306641 203.84375 C55.64409317 188.60074349 34.46031042 179.8221633 14.79907227 178.04052734 C-9.67634147 176.85138432 -31.62190087 182.81337916 -50.26708984 199.1875 C-51.01861328 199.8784375 -51.77013672 200.569375 -52.54443359 201.28125 C-53.470625 202.07015625 -53.470625 202.07015625 -54.41552734 202.875 C-67.98013924 215.15520292 -77.1542131 235.30462191 -78.83032227 253.36108398 C-78.94420112 256.4659503 -78.96143419 259.54965424 -78.91943359 262.65625 C-78.90928223 263.75114746 -78.89913086 264.84604492 -78.88867188 265.97412109 C-78.41154724 290.90665727 -68.11636638 310.6771438 -50.65380859 328.17578125 C-32.95268973 344.64972171 -10.87703106 350.15258423 12.64697266 349.71875 C35.20253666 348.70401916 55.43844298 337.9618993 70.89306641 321.84375 C75.42964345 316.64407257 79.1080462 310.93379161 82.87329102 305.16943359 C92.7257235 290.14685105 104.40296409 275.58229382 118.45556641 264.28125 C118.9421875 263.88228516 119.42880859 263.48332031 119.93017578 263.07226562 C155.56088405 233.91212804 198.33292994 217.03133379 244.58056641 217.09375 C245.61186676 217.09365936 245.61186676 217.09365936 246.66400146 217.09356689 C256.76703296 217.10621885 266.49207665 217.58482848 276.45556641 219.28125 C277.48939453 219.40242187 278.52322266 219.52359375 279.58837891 219.6484375 C318.84377509 224.46927563 355.3311531 246.46587144 383.45556641 273.28125 C384.62539062 274.37179687 384.62539062 274.37179687 385.81884766 275.484375 C409.55176627 298.24774277 424.73964846 328.00706926 434.14306641 359.09375 C434.42875488 360.01679932 434.71444336 360.93984863 435.00878906 361.89086914 C439.84571372 378.41490321 441.00653412 394.8985506 440.89306641 412.03125 C440.89035736 412.99448181 440.88764832 413.95771362 440.88485718 414.95013428 C440.82330307 429.39752834 440.08906132 443.2350466 436.45556641 457.28125 C436.25769531 458.09609863 436.05982422 458.91094727 435.85595703 459.75048828 C433.52602773 469.29452718 430.57658186 478.34697502 426.45556641 487.28125 C425.82392507 488.71087966 425.19242593 490.14057216 424.56103516 491.5703125 C416.29486252 509.96254661 405.57514008 526.01475534 392.45556641 541.28125 C391.69115234 542.18746094 390.92673828 543.09367188 390.13916016 544.02734375 C386.52184486 548.22512842 382.72452317 551.98523449 378.48681641 555.5546875 C377.14616101 556.69424459 375.83230321 557.86619784 374.54931641 559.0703125 C344.14442211 587.48719447 298.78619781 606.26931389 257.08447266 606.484375 C256.2038768 606.49007507 255.32328094 606.49577515 254.41600037 606.50164795 C252.55786316 606.51104704 250.69970967 606.51761153 248.84155273 606.52148438 C246.05697897 606.53111541 243.27316834 606.56215679 240.48876953 606.59375 C229.1086975 606.66087188 218.58756349 605.6922117 207.45556641 603.28125 C205.98867835 602.97728824 204.52163531 602.67407351 203.05444336 602.37158203 C181.67304831 597.89513178 160.55594898 589.00531229 142.14306641 577.28125 C141.262677 576.72074951 141.262677 576.72074951 140.36450195 576.14892578 C139.019392 575.25329103 137.72989643 574.27501324 136.45556641 573.28125 C136.45556641 572.62125 136.45556641 571.96125 136.45556641 571.28125 C137.22932617 570.91999023 138.00308594 570.55873047 138.80029297 570.18652344 C161.77921839 559.40855634 183.16556716 547.65959065 203.45556641 532.28125 C204.1081543 531.78705566 204.76074219 531.29286133 205.43310547 530.78369141 C212.19365536 525.63271375 218.73141214 520.31737794 224.97900391 514.546875 C226.98841584 512.70861171 229.02695479 510.93017895 231.09228516 509.15625 C236.2388806 504.66288552 241.06193811 499.85889515 245.89306641 495.03125 C246.78316406 494.15339844 247.67326172 493.27554687 248.59033203 492.37109375 C254.65215874 486.32255082 260.12590545 479.97812249 265.45556641 473.28125 C266.39107971 472.14983413 267.33032331 471.02147429 268.27587891 469.8984375 C272.55016027 464.81276713 276.72960475 459.68798994 280.74853516 454.3984375 C282.51738155 452.20458225 284.4298635 450.23913357 286.39306641 448.21875 C289.99818604 444.22711657 292.43153137 439.99205371 294.83056641 435.21875 C295.16435303 434.5580249 295.49813965 433.8972998 295.84204102 433.21655273 C301.66297399 421.13613359 302.51088482 407.09889433 298.76806641 394.21875 C295.94208174 386.33574013 292.32904747 379.80387592 286.59228516 373.69140625 C285.45556641 372.28125 285.45556641 372.28125 285.45556641 370.28125 C284.89224609 370.02085937 284.32892578 369.76046875 283.74853516 369.4921875 C281.23023066 368.16224816 279.05951579 366.59624004 276.76806641 364.90625 C263.98892742 355.88016211 250.77429802 354.00902739 235.45556641 355.28125 C222.0499343 357.64279068 210.07301252 364.78301208 201.45556641 375.28125 C199.23165061 378.50982951 197.29273706 381.82025754 195.45556641 385.28125 C194.87806641 386.333125 194.30056641 387.385 193.70556641 388.46875 C190.53517257 395.60213614 190.1179659 401.85777418 190.14306641 409.59375 C190.12695312 410.57537109 190.11083984 411.55699219 190.09423828 412.56835938 C190.08727005 423.09735519 192.88230446 430.91158882 198.34619141 439.8359375 C199.64480726 442.69837949 199.50212792 443.4020017 198.45556641 446.28125 C197.23144531 447.87768555 197.23144531 447.87768555 195.68212891 449.41796875 C195.11067139 449.99039307 194.53921387 450.56281738 193.95043945 451.15258789 C193.33338135 451.75192139 192.71632324 452.35125488 192.08056641 452.96875 C191.44352783 453.59450928 190.80648926 454.22026855 190.15014648 454.86499023 C184.84252683 460.02098261 179.30986475 464.75402706 173.45556641 469.28125 C172.17908229 470.29762165 170.90307455 471.31459176 169.62744141 472.33203125 C116.39287261 514.38465294 47.23894771 534.28328422 -20.27172852 527.40380859 C-41.13508567 524.92181923 -61.8113362 520.52042948 -81.54443359 513.28125 C-82.37410645 512.97993164 -83.2037793 512.67861328 -84.05859375 512.36816406 C-109.44854031 503.0157963 -133.34366821 490.13709108 -154.54443359 473.28125 C-155.45193359 472.56582031 -156.35943359 471.85039063 -157.29443359 471.11328125 C-172.73963791 458.71762722 -187.37121195 444.92625688 -199.54443359 429.28125 C-200.32044922 428.3221875 -201.09646484 427.363125 -201.89599609 426.375 C-243.34534445 374.26724778 -263.58300788 303.97577025 -256.97412109 237.75390625 C-256.32656519 232.23470996 -255.46847847 226.75991319 -254.54443359 221.28125 C-254.33634051 219.91813043 -254.12922722 218.55486072 -253.92333984 217.19140625 C-249.39740975 189.95149157 -239.6212338 163.54021856 -226.54443359 139.28125 C-226.20621582 138.63961914 -225.86799805 137.99798828 -225.51953125 137.33691406 C-214.22122889 115.96004231 -199.28383083 96.66571072 -182.54443359 79.28125 C-182.04266602 78.75756836 -181.54089844 78.23388672 -181.02392578 77.69433594 C-174.26293317 70.67246901 -167.24675048 64.27735745 -159.54443359 58.28125 C-158.26569109 57.26184 -156.98705219 56.24230003 -155.70849609 55.22265625 C-133.3985647 37.60665256 -108.2114406 24.05677265 -81.54443359 14.28125 C-79.73072266 13.59482422 -79.73072266 13.59482422 -77.88037109 12.89453125 C-69.98709698 10.07041399 -61.94872234 8.07275023 -53.79443359 6.15625 C-52.7720459 5.91438965 -51.7496582 5.6725293 -50.69628906 5.42333984 C-47.32109498 4.65665634 -43.93929543 3.95570191 -40.54443359 3.28125 C-39.53588318 3.07689331 -39.53588318 3.07689331 -38.50695801 2.8684082 C-25.6447135 0.32906844 -13.08816506 -0.1282564 0 0 Z " fill="#EAEAEA" transform="translate(419.54443359375,202.71875)"/>
<path d="M0 0 C1.50946444 0.62210717 3.01997085 1.24168936 4.53125 1.859375 C38.89172428 16.03444419 70.30453622 35.18086859 98 60 C98.50015625 60.44375977 99.0003125 60.88751953 99.515625 61.34472656 C110.9209983 71.48200244 122.26136621 82.07062624 131.70703125 94.0859375 C133.44351404 96.29277935 135.20554713 98.45304462 137.01171875 100.6015625 C145.10453453 110.27656923 152.21184621 120.3758456 159 131 C160.02480469 132.57587891 160.02480469 132.57587891 161.0703125 134.18359375 C170.72346958 149.39034538 179.13917522 165.3691448 186.1875 181.9375 C186.64487549 183.00830811 187.10225098 184.07911621 187.57348633 185.18237305 C190.017581 191.08292307 191.8277681 196.71971848 193 203 C193.81573486 203.15674194 193.81573486 203.15674194 194.64794922 203.31665039 C200.40204905 204.49813098 205.69327127 206.21792306 211.125 208.4375 C211.979729 208.78530518 212.83445801 209.13311035 213.71508789 209.49145508 C254.34496932 226.29610028 292.95651361 251.53775368 320.71484375 286.15234375 C322.20885586 288.01411269 323.7212838 289.86129036 325.25390625 291.69140625 C346.81687402 317.45446513 367.03061395 351.54317345 373.54296875 384.95703125 C374.01367547 387.06113054 374.68718608 388.97992406 375.4375 391 C377.29093149 396.27804601 378.10509346 401.73157993 378.99780273 407.23632812 C379.59590378 411.237693 379.59590378 411.237693 381 415 C381.31500605 418.08005912 381.51083648 421.16099912 381.71875 424.25 C381.83187492 426.95865993 381.83187492 426.95865993 383 429 C389.31123679 470.87956413 381.92108519 519.46504865 365 558 C364.41757183 559.36180948 363.83556721 560.72380015 363.25390625 562.0859375 C352.60615018 586.79552685 339.22637163 612.77362837 320 632 C319.04622259 642.53643519 320.27432316 653.56630698 320.7979126 664.11981201 C320.94013503 666.99069033 321.07783473 669.86175538 321.21435547 672.73291016 C321.53457018 679.45358164 321.86002809 686.17398476 322.19287109 692.89404297 C322.50760834 699.26156499 322.79066387 705.62810196 323 712 C323.03399902 712.95600098 323.06799805 713.91200195 323.10302734 714.89697266 C323.19705633 717.82714495 323.25975387 720.75632201 323.3125 723.6875 C323.35721436 725.00886963 323.35721436 725.00886963 323.40283203 726.35693359 C323.43793807 730.13120668 323.45214875 732.30727804 321.35546875 735.51953125 C318.44541622 737.34856924 316.42682093 737.70655488 313 738 C309.87620544 737.22499084 309.87620544 737.22499084 306.50170898 735.94555664 C305.88107574 735.71471375 305.2604425 735.48387085 304.6210022 735.24603271 C302.5740329 734.48082221 300.53534009 733.69569177 298.49609375 732.91015625 C297.05328434 732.36615498 295.61000176 731.82340717 294.16627502 731.28184509 C290.35714081 729.84909921 286.55470684 728.39933332 282.75341797 726.94592285 C278.96254675 725.49986893 275.16558169 724.07002295 271.36914062 722.63867188 C247.96253638 713.79989226 247.96253638 713.79989226 239.37548828 710.36279297 C238.40418472 709.97828476 237.43288116 709.59377655 236.43214417 709.19761658 C234.69662012 708.50806515 232.96557389 707.80706735 231.24058533 707.09156799 C224.5144108 704.43125213 220.15874411 705.4140785 213.4375 707.92578125 C211.88240723 708.49969604 211.88240723 708.49969604 210.29589844 709.08520508 C209.20825195 709.4902124 208.12060547 709.89521973 207 710.3125 C191.16345877 716.08864619 175.62888543 720.22130545 159 723 C158.10619629 723.15388184 157.21239258 723.30776367 156.29150391 723.46630859 C128.97110055 728.02052973 100.28724867 727.44671098 73 723 C72.04399902 722.84966309 71.08799805 722.69932617 70.10302734 722.54443359 C21.03326052 714.51210562 -25.50273219 690.86233109 -62.125 657.5 C-62.6303125 657.04141602 -63.135625 656.58283203 -63.65625 656.11035156 C-66.0284517 653.92811133 -68.26058315 651.70769 -70.40625 649.30078125 C-74.24268283 644.79745697 -74.24268283 644.79745697 -79.4609375 642.41015625 C-82.07144406 642.37401077 -84.41713792 642.61110315 -87 643 C-94.0490734 643.92335965 -100.96082118 644.17519807 -108.06640625 644.203125 C-109.21753403 644.20882507 -110.3686618 644.21452515 -111.55467224 644.22039795 C-113.98948256 644.22981126 -116.42430541 644.23636727 -118.85913086 644.24023438 C-122.49942829 644.24983368 -126.13913417 644.28084856 -129.77929688 644.3125 C-145.08495602 644.38189925 -159.87785399 643.3518407 -175 641 C-176.25643311 640.81179688 -177.51286621 640.62359375 -178.80737305 640.4296875 C-213.96816554 634.8201757 -251.4657723 623.2968679 -281.95703125 604.62890625 C-282.89131958 604.06079224 -282.89131958 604.06079224 -283.84448242 603.48120117 C-285.4888167 602.45960805 -287.10898173 601.39938481 -288.7265625 600.3359375 C-295.50291468 597.57040952 -303.0060085 600.36538206 -309.75390625 602.41015625 C-311.61054726 602.95558677 -313.46750752 603.49993124 -315.32470703 604.04345703 C-316.36878723 604.35083801 -317.41286743 604.65821899 -318.48858643 604.97491455 C-329.49348983 608.18757125 -340.53699476 611.26919223 -351.57465172 614.36704063 C-355.69812938 615.52460688 -359.82009335 616.68710492 -363.93920898 617.86010742 C-367.9869076 619.0125961 -372.03784409 620.15294895 -376.09134102 621.28486824 C-377.61991794 621.71395767 -379.1472978 622.14733683 -380.67338371 622.58520317 C-382.79343181 623.19269276 -384.91728791 623.78449009 -387.04272461 624.37280273 C-388.2451329 624.71222397 -389.4475412 625.0516452 -390.68638611 625.40135193 C-394.19386435 626.03502415 -396.57040191 625.91844089 -400 625 C-402.49766456 622.89670353 -403.86561306 621.36397925 -404.19343567 618.03669739 C-404.12152155 612.79658935 -403.73012044 607.70133489 -403.01171875 602.51171875 C-402.90894119 601.73568802 -402.80616364 600.95965729 -402.70027161 600.16011047 C-402.36855855 597.66841125 -402.02827409 595.17797469 -401.6875 592.6875 C-401.45408105 590.94991624 -401.2210101 589.2122857 -400.98828125 587.47460938 C-399.79383381 578.59982413 -398.54764802 569.73576969 -397.17138672 560.88720703 C-395.88718565 552.50467936 -394.77707124 544.09797518 -393.66162109 535.69165039 C-393.43047498 533.95094234 -393.19823129 532.21037965 -392.96484375 530.4699707 C-392.6358892 528.01297322 -392.31143123 525.55542311 -391.98828125 523.09765625 C-391.88844437 522.35580582 -391.78860748 521.61395538 -391.68574524 520.84962463 C-390.44195794 512.72357902 -390.44195794 512.72357902 -393.89428711 505.65209961 C-394.32104736 505.10690674 -394.74780762 504.56171387 -395.1875 504 C-417.89129699 473.52922294 -432.80706562 439.11625895 -444 403 C-444.25620117 402.18354004 -444.51240234 401.36708008 -444.77636719 400.52587891 C-451.98932122 377.08120593 -456.06906637 351.13593963 -456.23828125 326.64453125 C-456.2480751 325.4769075 -456.25786896 324.30928375 -456.26795959 323.10627747 C-456.59183217 274.5006014 -456.59183217 274.5006014 -452 251 C-451.78037598 249.84064941 -451.56075195 248.68129883 -451.33447266 247.48681641 C-448.32639563 231.96105152 -444.17214433 216.93529318 -439 202 C-438.73638672 201.21818359 -438.47277344 200.43636719 -438.20117188 199.63085938 C-423.99371019 157.64941245 -400.3242367 120.00690637 -371 87 C-370.53303711 86.46987305 -370.06607422 85.93974609 -369.58496094 85.39355469 C-357.49632679 71.72558543 -344.22999058 59.22586197 -329.64990234 48.25146484 C-328.0073573 47.00558057 -326.38636106 45.73606 -324.76953125 44.45703125 C-283.09464393 11.59456678 -232.93881571 -9.20171546 -181 -19 C-179.87319824 -19.21317871 -178.74639648 -19.42635742 -177.58544922 -19.64599609 C-119.71591862 -30.02481533 -54.03110234 -23.54566387 0 0 Z M-175 51 C-176.23081299 51.2462915 -177.46162598 51.49258301 -178.72973633 51.74633789 C-181.48417804 52.33723514 -184.20978425 52.98436011 -186.9375 53.6875 C-187.91017822 53.93677246 -188.88285645 54.18604492 -189.88500977 54.44287109 C-229.5964348 64.99404713 -268.01223449 84.68141914 -298 113 C-299.24596449 114.06722946 -300.49593956 115.12979557 -301.75 116.1875 C-311.73258642 124.91466987 -320.92142395 134.48946507 -329 145 C-329.43989258 145.55816406 -329.87978516 146.11632812 -330.33300781 146.69140625 C-342.83657621 162.56296805 -353.52591977 179.65212297 -362 198 C-362.33338379 198.71220703 -362.66676758 199.42441406 -363.01025391 200.15820312 C-373.66564723 223.01904698 -381.23219563 246.90017199 -384.70751953 271.93505859 C-384.98503081 273.89431604 -385.30196452 275.84787092 -385.62109375 277.80078125 C-395.24367851 343.83162149 -374.47551688 414.27926679 -335.4453125 467.5078125 C-333.03803528 470.73187012 -330.54029888 473.8800291 -328 477 C-327.56284668 477.54011719 -327.12569336 478.08023437 -326.67529297 478.63671875 C-315.1964796 492.71149098 -302.43120534 505.94176869 -288 517 C-287.04609375 517.77085937 -286.0921875 518.54171875 -285.109375 519.3359375 C-263.86145227 536.25953425 -239.34486817 549.35431526 -214 559 C-213.29166016 559.27005859 -212.58332031 559.54011719 -211.85351562 559.81835938 C-159.176664 579.48114731 -100.62047139 579.745202 -47 564 C-46.26644287 563.79197754 -45.53288574 563.58395508 -44.77709961 563.36962891 C-17.69709825 555.53131648 8.19297509 542.50439465 31 526 C31.87954346 525.36481445 31.87954346 525.36481445 32.77685547 524.71679688 C44.32110334 516.28819357 55.19350676 506.83382654 65.5 496.9375 C66.3971875 496.08027344 67.294375 495.22304688 68.21875 494.33984375 C70.20565145 492.23150407 70.20565145 492.23150407 69.96484375 490.05078125 C68.24415425 486.39344528 66.37277223 482.83242747 64.47265625 479.265625 C59.25185141 467.68845564 58.46878569 450.63210996 62.6875 438.625 C63.41267661 437.06133794 64.18105807 435.51665891 65 434 C65.350625 433.24332031 65.70125 432.48664063 66.0625 431.70703125 C72.4865549 418.74739272 84.36214647 408.68662393 98 404 C103.88851152 402.2677183 109.18621225 401.64409513 115.3125 401.6875 C116.14845703 401.69313965 116.98441406 401.6987793 117.84570312 401.70458984 C132.26664265 401.98707916 143.33678897 407.47117313 154 417 C154.66 417 155.32 417 156 417 C156.27199219 417.58652344 156.54398438 418.17304687 156.82421875 418.77734375 C157.97719136 420.95688333 159.25442289 422.65909709 160.8125 424.5625 C170.32148073 437.04739646 172.03569995 450.83791643 171 466 C169.32264718 478.32091887 162.66032329 488.7591644 154.18945312 497.55273438 C151.01644555 500.84694824 148.20914601 504.23791351 145.5 507.9375 C129.58656427 529.65565873 110.25120049 550.48232236 89 567 C87.14289454 568.57988537 85.28890671 570.1634403 83.4375 571.75 C60.53079487 590.7946995 34.36035056 606.26031985 7 618 C8.14925205 621.44775616 8.64324638 621.67780979 11.65625 623.41796875 C12.42275879 623.86374268 13.18926758 624.3095166 13.97900391 624.76879883 C14.81093262 625.23697021 15.64286133 625.7051416 16.5 626.1875 C17.78463135 626.91779419 17.78463135 626.91779419 19.09521484 627.6628418 C35.70735597 636.98629492 52.72576256 644.02583771 71.1875 648.75 C71.95811768 648.94875732 72.72873535 649.14751465 73.52270508 649.35229492 C86.67207927 652.56291658 99.48437422 653.3482713 112.95678711 653.31567383 C115.66626704 653.31252468 118.37463921 653.33602551 121.08398438 653.36132812 C136.16221185 653.41627631 150.93396017 651.78450373 165.5 647.75 C166.65508057 647.43639526 166.65508057 647.43639526 167.83349609 647.11645508 C198.00628529 638.66036729 224.81835349 624.21032549 247.859375 602.953125 C249.59341258 601.37097392 251.34699382 599.89053119 253.1875 598.4375 C256.85824195 595.25619031 259.87708548 591.71039348 263 588 C264.14662109 586.68515625 264.14662109 586.68515625 265.31640625 585.34375 C281.9893395 565.93113288 294.42884175 543.35256758 302.33886719 519.0300293 C302.87814967 517.3741453 303.44831764 515.72834615 304.02734375 514.0859375 C305.14554989 510.75531491 306.10577374 507.39609625 307 504 C307.28157959 502.9483667 307.28157959 502.9483667 307.56884766 501.87548828 C314.42248642 474.75740105 314.19199264 440.96247031 307 414 C306.73735352 412.9908252 306.47470703 411.98165039 306.20410156 410.94189453 C303.23390273 399.72624684 300.13330842 388.44176909 295 378 C294.66661621 377.31695801 294.33323242 376.63391602 293.98974609 375.93017578 C284.05465292 355.77344133 271.32869891 338.42360597 256 322 C255.24203125 321.18789063 254.4840625 320.37578125 253.703125 319.5390625 C220.4142948 285.053575 171.42773736 264.79625948 123.78515625 263.796875 C108.6327804 263.64386008 93.90176316 263.94075745 79 267 C78.18063965 267.16628906 77.3612793 267.33257812 76.51708984 267.50390625 C33.64751711 276.52732051 -8.23915177 300.96761686 -35 336 C-35.83964653 337.06368523 -36.68085475 338.12613914 -37.5234375 339.1875 C-41.46083282 344.18152216 -45.21899626 349.20435421 -48.5625 354.625 C-59.01579724 371.44330258 -73.42483299 383.9423561 -92 391 C-92.60070312 391.22993652 -93.20140625 391.45987305 -93.8203125 391.69677734 C-111.84946197 398.32751783 -132.95846192 398.76835069 -151 392 C-152.03769531 391.63777344 -153.07539063 391.27554687 -154.14453125 390.90234375 C-175.14776364 382.94861646 -192.08065027 365.943725 -201.51171875 345.765625 C-202.82099681 342.54157692 -203.95337162 339.31828771 -205 336 C-205.3196875 334.99324219 -205.639375 333.98648437 -205.96875 332.94921875 C-210.263951 316.6632483 -209.85590539 297.78214501 -204 282 C-203.63777344 280.96101562 -203.27554688 279.92203125 -202.90234375 278.8515625 C-194.66237944 257.12040239 -177.1525005 240.53073042 -156.29003906 230.97509766 C-135.84023221 222.26757862 -111.50312029 222.03427029 -90.88110352 230.30786133 C-78.36990122 235.62803858 -64.67913289 243.48130066 -57 255 C-54.33438241 253.74027897 -52.02979762 252.37876572 -49.70703125 250.56640625 C-49.08618652 250.08816406 -48.4653418 249.60992187 -47.82568359 249.1171875 C-46.82915771 248.34761719 -46.82915771 248.34761719 -45.8125 247.5625 C-25.38198048 232.07281633 -3.06616725 218.96686584 21 210 C21.98532715 209.63277832 22.9706543 209.26555664 23.98583984 208.88720703 C52.94895228 198.2876945 82.2753017 193.1962485 113 192 C111.5257905 186.8840946 109.27398358 182.6577307 106.5625 178.125 C106.12075439 177.3832251 105.67900879 176.6414502 105.22387695 175.87719727 C93.82366284 156.96106363 80.26708755 139.93159626 65 124 C64.22011719 123.17886719 63.44023438 122.35773438 62.63671875 121.51171875 C57.96722556 116.70952238 53.01996195 112.41069867 47.78515625 108.234375 C46.0181735 106.81682362 44.27273254 105.37164092 42.55859375 103.890625 C23.1074138 87.2094879 -0.42470977 74.7570633 -24 65 C-24.89412598 64.62488281 -25.78825195 64.24976563 -26.70947266 63.86328125 C-40.38425971 58.23093178 -54.19473078 54.55466831 -68.625 51.5 C-69.82851105 51.24209183 -69.82851105 51.24209183 -71.05633545 50.97897339 C-88.27553395 47.33218384 -105.1925804 46.77079747 -122.74829102 46.70483398 C-124.85838555 46.6933652 -126.96845225 46.67299535 -129.07836914 46.64331055 C-144.79896035 46.42358806 -159.59259344 47.87180471 -175 51 Z " fill="#0477D1" transform="translate(549,156)"/>
<path d="M0 0 C0.33 0.66 0.66 1.32 1 2 C1.55534424 1.98428955 2.11068848 1.9685791 2.68286133 1.95239258 C56.97741181 0.64295852 107.85253713 15.9634749 153 46 C154.00643555 46.66878174 154.00643555 46.66878174 155.03320312 47.35107422 C174.40693607 60.37875762 193.1220236 76.95512205 207.71484375 95.15234375 C209.20885586 97.01411269 210.7212838 98.86129036 212.25390625 100.69140625 C233.81687402 126.45446513 254.03061395 160.54317345 260.54296875 193.95703125 C261.01367547 196.06113054 261.68718608 197.97992406 262.4375 200 C264.29093149 205.27804601 265.10509346 210.73157993 265.99780273 216.23632812 C266.59590378 220.237693 266.59590378 220.237693 268 224 C268.31500605 227.08005912 268.51083648 230.16099912 268.71875 233.25 C268.83187492 235.95865993 268.83187492 235.95865993 270 238 C276.31123679 279.87956413 268.92108519 328.46504865 252 367 C251.41757183 368.36180948 250.83556721 369.72380015 250.25390625 371.0859375 C239.60615018 395.79552685 226.22637163 421.77362837 207 441 C206.04622259 451.53643519 207.27432316 462.56630698 207.7979126 473.11981201 C207.94013503 475.99069033 208.07783473 478.86175538 208.21435547 481.73291016 C208.53457018 488.45358164 208.86002809 495.17398476 209.19287109 501.89404297 C209.50760834 508.26156499 209.79066387 514.62810196 210 521 C210.03399902 521.95600098 210.06799805 522.91200195 210.10302734 523.89697266 C210.19705633 526.82714495 210.25975387 529.75632201 210.3125 532.6875 C210.35721436 534.00886963 210.35721436 534.00886963 210.40283203 535.35693359 C210.43793807 539.13120668 210.45214875 541.30727804 208.35546875 544.51953125 C205.44541622 546.34856924 203.42682093 546.70655488 200 547 C196.87620544 546.22499084 196.87620544 546.22499084 193.50170898 544.94555664 C192.88107574 544.71471375 192.2604425 544.48387085 191.6210022 544.24603271 C189.5740329 543.48082221 187.53534009 542.69569177 185.49609375 541.91015625 C184.05328434 541.36615498 182.61000176 540.82340717 181.16627502 540.28184509 C177.35714081 538.84909921 173.55470684 537.39933332 169.75341797 535.94592285 C165.96254675 534.49986893 162.16558169 533.07002295 158.36914062 531.63867188 C134.96253638 522.79989226 134.96253638 522.79989226 126.37548828 519.36279297 C125.40418472 518.97828476 124.43288116 518.59377655 123.43214417 518.19761658 C121.69662012 517.50806515 119.96557389 516.80706735 118.24058533 516.09156799 C111.5144108 513.43125213 107.15874411 514.4140785 100.4375 516.92578125 C98.88240723 517.49969604 98.88240723 517.49969604 97.29589844 518.08520508 C96.20825195 518.4902124 95.12060547 518.89521973 94 519.3125 C78.16345877 525.08864619 62.62888543 529.22130545 46 532 C45.10619629 532.15388184 44.21239258 532.30776367 43.29150391 532.46630859 C15.97110055 537.02052973 -12.71275133 536.44671098 -40 532 C-40.95600098 531.84966309 -41.91200195 531.69932617 -42.89697266 531.54443359 C-95.17391125 522.98711728 -142.64201102 496.9640152 -181 461 C-181.77472656 460.30261719 -182.54945313 459.60523438 -183.34765625 458.88671875 C-183.99605469 458.28472656 -184.64445313 457.68273437 -185.3125 457.0625 C-185.86550781 456.55847656 -186.41851562 456.05445313 -186.98828125 455.53515625 C-188 454 -188 454 -187.66796875 451.80859375 C-187.44753906 451.21175781 -187.22710937 450.61492187 -187 450 C-186.07058594 449.87882812 -185.14117187 449.75765625 -184.18359375 449.6328125 C-182.94738281 449.46523438 -181.71117187 449.29765625 -180.4375 449.125 C-179.21933594 448.96257812 -178.00117188 448.80015625 -176.74609375 448.6328125 C-173.78781656 448.13308267 -171.03709805 447.48815054 -168.17211914 446.62451172 C-161.58371818 444.73026313 -154.88036705 443.2126374 -148.2265625 441.56640625 C-136.93221206 438.8568127 -136.93221206 438.8568127 -126 435 C-120.98145079 432.96972878 -115.92092304 431.05136021 -110.86328125 429.12109375 C-108.11135863 428.09331717 -108.11135863 428.09331717 -106 427 C-105.50757813 427.56203125 -105.01515625 428.1240625 -104.5078125 428.703125 C-101.25420871 431.68306118 -97.73397059 433.64387168 -93.875 435.75 C-93.08383789 436.18465576 -92.29267578 436.61931152 -91.47753906 437.06713867 C-75.75274787 445.5684122 -59.32345308 452.24621812 -42 456.6875 C-41.2177002 456.89012451 -40.43540039 457.09274902 -39.62939453 457.30151367 C-26.42577414 460.54890522 -13.57609162 461.3484176 -0.04321289 461.31567383 C2.66626704 461.31252468 5.37463921 461.33602551 8.08398438 461.36132812 C23.16221185 461.41627631 37.93396017 459.78450373 52.5 455.75 C53.27005371 455.54093018 54.04010742 455.33186035 54.83349609 455.11645508 C84.92278832 446.68376777 111.852027 432.28801604 134.78125 411.0078125 C136.33313242 409.60346819 137.93948628 408.25807589 139.58203125 406.9609375 C143.20033609 404.02654488 146.00314342 400.55075031 149 397 C149.76570313 396.12214844 150.53140625 395.24429687 151.3203125 394.33984375 C167.99026135 374.92640802 180.42916216 352.35158235 188.33886719 328.0300293 C188.87814967 326.3741453 189.44831764 324.72834615 190.02734375 323.0859375 C191.14554989 319.75531491 192.10577374 316.39609625 193 313 C193.28157959 311.9483667 193.28157959 311.9483667 193.56884766 310.87548828 C200.42248642 283.75740105 200.19199264 249.96247031 193 223 C192.73735352 221.9908252 192.47470703 220.98165039 192.20410156 219.94189453 C189.23390273 208.72624684 186.13330842 197.44176909 181 187 C180.66661621 186.31695801 180.33323242 185.63391602 179.98974609 184.93017578 C170.05041663 164.76484657 157.31754644 147.44423112 142 131 C141.31550781 130.26136719 140.63101562 129.52273438 139.92578125 128.76171875 C107.07400349 94.57400917 57.77905896 74.78265234 10.78515625 73.796875 C-4.3672196 73.64386008 -19.09823684 73.94075745 -34 77 C-34.81936035 77.16628906 -35.6387207 77.33257812 -36.48291016 77.50390625 C-69.25173649 84.40126202 -99.80771183 99.99752673 -125 122 C-125.52190918 122.45487793 -126.04381836 122.90975586 -126.58154297 123.37841797 C-134.17221914 130.04280453 -140.83742227 136.96329308 -147 145 C-147.84116732 146.06481496 -148.68366412 147.12858075 -149.52734375 148.19140625 C-153.46288415 153.18446588 -157.22000091 158.205983 -160.5625 163.625 C-171.2152672 180.74907437 -186.07400996 193.80906072 -205 201 C-205.60070312 201.22993652 -206.20140625 201.45987305 -206.8203125 201.69677734 C-224.84946197 208.32751783 -245.95846192 208.76835069 -264 202 C-265.03769531 201.63777344 -266.07539063 201.27554688 -267.14453125 200.90234375 C-288.42074478 192.84524106 -305.96259126 175.22004411 -315.5078125 154.76953125 C-316.81987869 151.54436257 -317.95274949 148.32026015 -319 145 C-319.3196875 143.99324219 -319.639375 142.98648438 -319.96875 141.94921875 C-324.263951 125.6632483 -323.85590539 106.78214501 -318 91 C-317.45666016 89.44152344 -317.45666016 89.44152344 -316.90234375 87.8515625 C-312.37958346 75.92374045 -304.8851206 66.03831233 -296 57 C-295.31421875 56.30132812 -294.6284375 55.60265625 -293.921875 54.8828125 C-276.67237399 38.46384302 -253.84877789 32.16462933 -230.59765625 32.72265625 C-207.23037754 33.66769974 -187.27484729 44.5724806 -171 61 C-170.67 61.66 -170.34 62.32 -170 63 C-167.33438241 61.74027897 -165.02979762 60.37876572 -162.70703125 58.56640625 C-162.08618652 58.08816406 -161.4653418 57.60992187 -160.82568359 57.1171875 C-160.16133301 56.60414063 -159.49698242 56.09109375 -158.8125 55.5625 C-138.38198048 40.07281633 -116.06616725 26.96686584 -92 18 C-90.52200928 17.44916748 -90.52200928 17.44916748 -89.01416016 16.88720703 C-60.05104772 6.2876945 -30.7246983 1.1962485 0 0 Z " fill="#0E91DD" transform="translate(662,347)"/>
<path d="M0 0 C3.3 0 6.6 0 10 0 C7 2 7 2 5 2 C4.34 2.66 3.68 3.32 3 4 C2.01 2.68 1.02 1.36 0 0 Z " fill="#025996" transform="translate(470,796)"/>
</svg>
