<?xml version="1.0" encoding="UTF-8"?>
<svg version="1.1" xmlns="http://www.w3.org/2000/svg" width="128" height="117">
<path d="M0 0 C3.14565046 -0.08845016 6.29097375 -0.14086835 9.4375 -0.1875 C10.31599609 -0.21263672 11.19449219 -0.23777344 12.09960938 -0.26367188 C17.61445675 -0.32472185 22.00330236 0.35071058 27.14013672 2.39306641 C29.66171661 3.21593955 31.46408938 2.61684312 34 2 C38.10412116 3.02603029 41.512912 4.60885394 45 7 C45.495 7.99 45.495 7.99 46 9 C46.99 9.33 47.98 9.66 49 10 C49.66666667 11.33333333 50.33333333 12.66666667 51 14 C52.94055478 15.6373431 54.73213843 16.86606921 57 18 C57.3448086 19.33041194 57.67522378 20.66455652 58 22 C59.44461355 24.94819091 60.98380201 27.83691582 62.52734375 30.734375 C65.61240981 37.57552946 66.33576916 44.10051108 66.625 51.5 C66.66367188 52.32242188 66.70234375 53.14484375 66.7421875 53.9921875 C66.83531692 55.9944701 66.91868985 57.99720262 67 60 C68.32 60.66 69.64 61.32 71 62 C71 62.66 71 63.32 71 64 C70.443125 64.226875 69.88625 64.45375 69.3125 64.6875 C66.28427625 66.40622159 64.22676336 68.32788397 62 71 C62.04497842 73.27523089 62.04497842 73.27523089 63 75 C62.01 75 61.02 75 60 75 C58.55022106 77.34112451 57.95685589 78.5796929 58.2421875 81.359375 C58.55542969 82.54273437 58.55542969 82.54273437 58.875 83.75 C59.18050781 84.94882813 59.18050781 84.94882813 59.4921875 86.171875 C59.65976563 86.77515625 59.82734375 87.3784375 60 88 C59.34 88 58.68 88 58 88 C57.34 86.68 56.68 85.36 56 84 C54.31503702 84.96885372 52.64821244 85.96986723 51 87 C51 87.33 51 87.66 51 88 C51.92232422 88.07347656 51.92232422 88.07347656 52.86328125 88.1484375 C53.67152344 88.22320312 54.47976562 88.29796875 55.3125 88.375 C56.11300781 88.44460937 56.91351563 88.51421875 57.73828125 88.5859375 C60 89 60 89 63 91 C65.33991954 91.581502 67.69710684 92.09529204 70.0625 92.5625 C76.81475129 93.90737564 76.81475129 93.90737564 79 95 C79 97.31 79 99.62 79 102 C77.18960529 102.48706051 75.37653433 102.96417519 73.5625 103.4375 C72.55316406 103.70433594 71.54382813 103.97117187 70.50390625 104.24609375 C61.85684823 106.10660902 53.25878817 106.19106224 44.4375 106.1875 C42.57230713 106.19064209 42.57230713 106.19064209 40.66943359 106.19384766 C34.05953151 106.16194908 27.65282258 105.91489635 21.125 104.875 C16.34223004 104.15307246 12.50958939 104.02885077 7.75 104.875 C-8.43837353 107.71213763 -33.77086411 109.61456795 -49 102 C-49 99.69 -49 97.38 -49 95 C-43.06682122 92.89603589 -37.17222879 91.24028238 -31 90 C-31 89.67 -31 89.34 -31 89 C-28.03 89 -25.06 89 -22 89 C-23.48397601 84.8686365 -23.48397601 84.8686365 -26.3828125 84.171875 C-27.28773437 84.03265625 -28.19265625 83.8934375 -29.125 83.75 C-30.03507812 83.60046875 -30.94515625 83.4509375 -31.8828125 83.296875 C-32.58148438 83.19890625 -33.28015625 83.1009375 -34 83 C-32.33333333 81.33333333 -30.66666667 79.66666667 -29 78 C-29.32613281 77.42894531 -29.65226562 76.85789062 -29.98828125 76.26953125 C-36.99139334 63.27555631 -39.14349063 49.26072542 -35 35 C-33.5 32.125 -33.5 32.125 -32 30 C-31.54367188 29.07767578 -31.54367188 29.07767578 -31.078125 28.13671875 C-28.36168916 22.75305786 -24.86351661 17.83331677 -20.75 13.4375 C-17.56317916 9.88361079 -16.81721814 6.65814341 -16 2 C-14.9790625 2.5259375 -14.9790625 2.5259375 -13.9375 3.0625 C-9.5057333 4.47689363 -5.7893231 3.77996135 -1.5625 1.9375 C-1.046875 1.628125 -0.53125 1.31875 0 1 C0 0.67 0 0.34 0 0 Z M-16 6 C-15 8 -15 8 -15 8 Z M-13 6 C-12.67 6.66 -12.34 7.32 -12 8 C-11.67 7.34 -11.34 6.68 -11 6 C-11.66 6 -12.32 6 -13 6 Z M39 12 C40 14 40 14 40 14 Z M42 16 C43 18 43 18 43 18 Z M45 16 C46 18 46 18 46 18 Z M43 18 C44 20 44 20 44 20 Z M46 18 C47 20 47 20 47 20 Z M44 20 C45 23 45 23 45 23 Z M47 20 C44.74375362 23.38436957 44.75613019 24.77574644 44.625 28.75 C44.24043213 34.32286069 43.38336676 37.5532894 40 42 C35.62662532 44.76606604 31.01364094 44.68257024 26 44 C23 42.125 23 42.125 21 40 C19.15811388 37.94729537 19.15811388 37.94729537 17 37 C16.34 36.34 15.68 35.68 15 35 C14.236875 34.71125 13.47375 34.4225 12.6875 34.125 C8.98100556 32.57344419 6.11549158 30.35798975 3.5625 27.25 C1.16481506 25.33185205 -1.04163881 25.80277592 -4 26 C-3.2981731 29.18307311 -3.2981731 29.18307311 -0.53125 30.5 C0.4690625 30.995 1.469375 31.49 2.5 32 C5.53125 33.5 5.53125 33.5 8 35 C8.33 35.99 8.66 36.98 9 38 C10.94603274 38.59070014 10.94603274 38.59070014 13 39 C14.33333333 40.33333333 15.66666667 41.66666667 17 43 C18.66235013 43.67735829 20.32969103 44.34251224 22 45 C23.74896886 45.96494834 25.4785458 46.9658371 27.1875 48 C28.04730469 48.515625 28.90710938 49.03125 29.79296875 49.5625 C32.20208902 51.13162612 33.97122224 52.97122224 36 55 C38.35815459 54.79681318 38.35815459 54.79681318 41 54 C42.010625 53.79375 43.02125 53.5875 44.0625 53.375 C48.2724331 51.40439302 49.02538739 49.16862663 51 45 C53.90011961 36.29964117 51.95717657 27.98501701 48 20 C47.67 20 47.34 20 47 20 Z M-22 22 C-22 22.33 -22 22.66 -22 23 C-19.69 23 -17.38 23 -15 23 C-15 22.67 -15 22.34 -15 22 C-17.31 22 -19.62 22 -22 22 Z M-10 23 C-9 26 -9 26 -9 26 Z M-7 23 C-6 25 -6 25 -6 25 Z M-27 24 C-27 24.66 -27 25.32 -27 26 C-25.68 25.67 -24.36 25.34 -23 25 C-24.32 24.67 -25.64 24.34 -27 24 Z M-23 24 C-23 24.33 -23 24.66 -23 25 C-21.35 25 -19.7 25 -18 25 C-18 24.67 -18 24.34 -18 24 C-19.65 24 -21.3 24 -23 24 Z M-18 25 C-18 25.33 -18 25.66 -18 26 C-16.35 26 -14.7 26 -13 26 C-13 25.67 -13 25.34 -13 25 C-14.65 25 -16.3 25 -18 25 Z M-6 25 C-5 28 -5 28 -5 28 Z M-9 26 C-8 28 -8 28 -8 28 Z M-19.73828125 51.8828125 C-23.58403858 58.33606473 -23.61098418 65.80253844 -22 73 C-21.34 73.99 -20.68 74.98 -20 76 C-19.67 75.34 -19.34 74.68 -19 74 C-18.34 74 -17.68 74 -17 74 C-16.34 74.66 -15.68 75.32 -15 76 C-14.97421875 75.34773438 -14.9484375 74.69546875 -14.921875 74.0234375 C-14.54471488 68.21174291 -13.76756953 64.65405648 -10 60 C-9.566875 59.236875 -9.13375 58.47375 -8.6875 57.6875 C-7 56 -7 56 -3.9375 54.9375 C4.75322697 55.07544805 12.88313747 61.12000914 19 67 C19.495 68.485 19.495 68.485 20 70 C20.928125 70.12375 21.85625 70.2475 22.8125 70.375 C26 71 26 71 29 73 C29.99 72.67 30.98 72.34 32 72 C30.865625 71.401875 29.73125 70.80375 28.5625 70.1875 C25.125 68.375 25.125 68.375 24 65 C22.75669922 64.59394531 22.75669922 64.59394531 21.48828125 64.1796875 C15.99117716 62.32064446 11.62023475 58.82978087 6.89648438 55.51953125 C0.94336543 51.42898234 -5.06350326 47.84904832 -12.1875 46.3125 C-15.92632511 47.22643503 -17.43138207 48.86749547 -19.73828125 51.8828125 Z M65 60 C66 63 66 63 66 63 Z M56 74 C57 76 57 76 57 76 Z M43 75 C47 76 47 76 47 76 Z M47 76 C48 78 48 78 48 78 Z M50 76 C50 76.66 50 77.32 50 78 C51.32 77.67 52.64 77.34 54 77 C52.68 76.67 51.36 76.34 50 76 Z M37 77 C41 78 41 78 41 78 Z M-19 78 C-18 80 -18 80 -18 80 Z M42 78 C42 78.33 42 78.66 42 79 C43.65 79 45.3 79 47 79 C47 78.67 47 78.34 47 78 C45.35 78 43.7 78 42 78 Z M-15 77 C-15.99 77.99 -16.98 78.98 -18 80 C-16.5140084 84.59306496 -14.14985318 87.43569245 -11 91 C-9.68 90.67 -8.36 90.34 -7 90 C-7.95741106 88.39528272 -8.91596405 86.79124671 -9.875 85.1875 C-10.67550781 83.84751953 -10.67550781 83.84751953 -11.4921875 82.48046875 C-12.61883092 80.62705276 -13.79686611 78.80470083 -15 77 Z " fill="#C3C6C9" transform="translate(49,9)"/>
<path d="M0 0 C5.06315539 3.15330845 9.97711843 6.43823703 14.31640625 10.54296875 C14.31640625 11.20296875 14.31640625 11.86296875 14.31640625 12.54296875 C15.14140625 12.62546875 15.96640625 12.70796875 16.81640625 12.79296875 C20.50672372 13.58375107 23.21192327 14.88939929 26.484375 16.703125 C28.43503003 17.75132947 28.43503003 17.75132947 31.31640625 17.54296875 C31.31640625 18.53296875 31.31640625 19.52296875 31.31640625 20.54296875 C34.61640625 20.21296875 37.91640625 19.88296875 41.31640625 19.54296875 C41.31640625 20.20296875 41.31640625 20.86296875 41.31640625 21.54296875 C44.07916802 21.02028409 46.64249385 20.43427288 49.31640625 19.54296875 C49.64640625 18.88296875 49.97640625 18.22296875 50.31640625 17.54296875 C50.31640625 18.20296875 50.31640625 18.86296875 50.31640625 19.54296875 C51.30640625 19.21296875 52.29640625 18.88296875 53.31640625 18.54296875 C53.13207031 19.105 52.94773437 19.66703125 52.7578125 20.24609375 C52.24287866 22.92557249 52.59527203 24.65843186 53.25390625 27.29296875 C53.44855469 28.0921875 53.64320312 28.89140625 53.84375 29.71484375 C54.07771484 30.61976562 54.07771484 30.61976562 54.31640625 31.54296875 C53.65640625 31.54296875 52.99640625 31.54296875 52.31640625 31.54296875 C51.32640625 29.56296875 51.32640625 29.56296875 50.31640625 27.54296875 C48.63144327 28.51182247 46.96461869 29.51283598 45.31640625 30.54296875 C45.31640625 30.87296875 45.31640625 31.20296875 45.31640625 31.54296875 C48.28640625 31.87296875 51.25640625 32.20296875 54.31640625 32.54296875 C54.31640625 32.87296875 54.31640625 33.20296875 54.31640625 33.54296875 C53.04796875 33.45595703 53.04796875 33.45595703 51.75390625 33.3671875 C45.00314542 33.09869133 40.72989719 33.19058447 35.265625 37.234375 C28.91564068 41.49739052 20.74862369 42.08523089 13.31640625 42.54296875 C12.63449219 42.65382812 11.95257813 42.7646875 11.25 42.87890625 C3.01646372 43.78506394 -4.96019506 38.84718254 -11.68359375 34.54296875 C-14.26472119 32.43519686 -16.03342785 30.4257887 -17.68359375 27.54296875 C-18.30234375 26.47046875 -18.92109375 25.39796875 -19.55859375 24.29296875 C-21.06108516 19.28466404 -21.41216066 14.72911172 -20.68359375 9.54296875 C-18.80859375 6.10546875 -18.80859375 6.10546875 -16.68359375 3.54296875 C-16.21953125 2.42921875 -16.21953125 2.42921875 -15.74609375 1.29296875 C-12.20118937 -4.54569728 -4.97346199 -2.70029305 0 0 Z " fill="#D9242B" transform="translate(54.68359375,65.45703125)"/>
<path d="M0 0 C21.72340426 -0.76595745 21.72340426 -0.76595745 31 4 C31 4.99 31 5.98 31 7 C31.78375 7.309375 32.5675 7.61875 33.375 7.9375 C37.6238334 9.6572659 38.722348 10.90766615 41.0625 14.875 C41.58972656 15.75929688 42.11695313 16.64359375 42.66015625 17.5546875 C45.71596813 23.13176691 45.59517948 28.78278737 45 35 C43.61795114 38.92036632 41.29167887 42.43815038 38 45 C32.74501906 45.8417069 26.91011261 46.11905504 22.3125 43.125 C20 41 20 41 19 39 C17.515 38.505 17.515 38.505 16 38 C15.67 37.34 15.34 36.68 15 36 C14.278125 35.71125 13.55625 35.4225 12.8125 35.125 C9.51407634 33.80563053 6.84612918 32.11804962 4 30 C4 29.34 4 28.68 4 28 C3.04287109 27.83564453 3.04287109 27.83564453 2.06640625 27.66796875 C0.82697266 27.43013672 0.82697266 27.43013672 -0.4375 27.1875 C-1.26121094 27.03667969 -2.08492187 26.88585937 -2.93359375 26.73046875 C-3.61550781 26.48941406 -4.29742187 26.24835937 -5 26 C-5.33 25.01 -5.66 24.02 -6 23 C-6.66 23 -7.32 23 -8 23 C-8.33 21.35 -8.66 19.7 -9 18 C-8.01 18 -7.02 18 -6 18 C-6.66 17.34 -7.32 16.68 -8 16 C-7.34 15.34 -6.68 14.68 -6 14 C-7.65 14 -9.3 14 -11 14 C-12.58706842 9.8922935 -13.10191901 8.40767604 -12 4 C-8.04 3.34 -4.08 2.68 0 2 C0 1.34 0 0.68 0 0 Z " fill="#D61D24" transform="translate(49,9)"/>
<path d="M0 0 C0.73089844 0.38542969 1.46179687 0.77085938 2.21484375 1.16796875 C3.80989583 2.11197917 5.40494792 3.05598958 7 4 C6.34 4.33 5.68 4.66 5 5 C4.34 4.67 3.68 4.34 3 4 C3 4.66 3 5.32 3 6 C17.52 6.66 32.04 7.32 47 8 C47 7.34 47 6.68 47 6 C48.32 5.67 49.64 5.34 51 5 C50.505 3.515 50.505 3.515 50 2 C57.00088062 -2.97315989 62.10531632 -3.55898769 70.5 -2.5 C71.48097656 -2.4071875 72.46195312 -2.314375 73.47265625 -2.21875 C79.63938341 -1.56184165 85.21587468 -0.23132924 91 2 C91 4.31 91 6.62 91 9 C89.18960529 9.48706051 87.37653433 9.96417519 85.5625 10.4375 C84.55316406 10.70433594 83.54382813 10.97117187 82.50390625 11.24609375 C73.85684823 13.10660902 65.25878817 13.19106224 56.4375 13.1875 C54.57230713 13.19064209 54.57230713 13.19064209 52.66943359 13.19384766 C46.05953151 13.16194908 39.65282258 12.91489635 33.125 11.875 C28.34223004 11.15307246 24.50958939 11.02885077 19.75 11.875 C3.56162647 14.71213763 -21.77086411 16.61456795 -37 9 C-37 6.69 -37 4.38 -37 2 C-30.49333556 -0.47958287 -24.29542642 -1.72683326 -17.375 -2.375 C-16.47265625 -2.48199219 -15.5703125 -2.58898437 -14.640625 -2.69921875 C-8.75866813 -3.27369559 -5.20909431 -2.81803463 0 0 Z " fill="#F8F8F9" transform="translate(37,102)"/>
<path d="M0 0 C1.18851563 0.00902344 2.37703125 0.01804688 3.6015625 0.02734375 C4.51679687 0.03894531 5.43203125 0.05054688 6.375 0.0625 C6.705 1.3825 7.035 2.7025 7.375 4.0625 C6.6325 4.289375 5.89 4.51625 5.125 4.75 C1.17293112 6.63621469 -0.82839046 8.89537942 -2.3515625 13.0390625 C-3.89774688 18.87333158 -3.53959286 24.14236514 -2.625 30.0625 C-1.305 30.3925 0.015 30.7225 1.375 31.0625 C1.375 28.4225 1.375 25.7825 1.375 23.0625 C1.705 23.0625 2.035 23.0625 2.375 23.0625 C2.87 29.9925 2.87 29.9925 3.375 37.0625 C2.715 37.0625 2.055 37.0625 1.375 37.0625 C2.77241988 41.50883599 4.76818665 44.1114709 8.375 47.0625 C10.36838221 47.43336181 12.37012332 47.75987711 14.375 48.0625 C18.50573725 49.88892741 22.48931848 52.01608961 26.4375 54.20703125 C34.76232458 57.88270984 47.85861345 53.83941524 56.375 52.0625 C56.705 53.0525 57.035 54.0425 57.375 55.0625 C56.055 55.3925 54.735 55.7225 53.375 56.0625 C53.375 56.7225 53.375 57.3825 53.375 58.0625 C43.59164593 58.19372233 33.83937546 57.99581061 24.0625 57.625 C22.4074646 57.56614624 22.4074646 57.56614624 20.71899414 57.50610352 C19.68121826 57.46412842 18.64344238 57.42215332 17.57421875 57.37890625 C16.64440186 57.34224854 15.71458496 57.30559082 14.7565918 57.26782227 C12.375 57.0625 12.375 57.0625 9.375 56.0625 C9.375 55.4025 9.375 54.7425 9.375 54.0625 C10.365 54.0625 11.355 54.0625 12.375 54.0625 C3.7955687 48.63808537 -2.23326091 45.88289718 -12.625 47.0625 C-12.625 46.7325 -12.625 46.4025 -12.625 46.0625 C-9.655 46.0625 -6.685 46.0625 -3.625 46.0625 C-5.10897601 41.9311365 -5.10897601 41.9311365 -8.0078125 41.234375 C-8.91273437 41.09515625 -9.81765625 40.9559375 -10.75 40.8125 C-11.66007812 40.66296875 -12.57015625 40.5134375 -13.5078125 40.359375 C-14.20648437 40.26140625 -14.90515625 40.1634375 -15.625 40.0625 C-13.95833333 38.39583333 -12.29166667 36.72916667 -10.625 35.0625 C-10.97433594 34.4334375 -11.32367188 33.804375 -11.68359375 33.15625 C-15.85105186 25.31717866 -17.7158998 19.07939095 -15.49609375 10.24609375 C-12.4383518 2.58117111 -7.91569957 -0.0776049 0 0 Z M-0.625 35.0625 C0.375 37.0625 0.375 37.0625 0.375 37.0625 Z " fill="#B3B0B5" transform="translate(30.625,51.9375)"/>
<path d="M0 0 C1.61635488 2.86973884 2.2733418 5.04464203 2.4140625 8.328125 C2.47207031 9.52695312 2.47207031 9.52695312 2.53125 10.75 C2.5621875 11.575 2.593125 12.4 2.625 13.25 C2.68300781 14.51070312 2.68300781 14.51070312 2.7421875 15.796875 C2.83615836 17.86423382 2.91915564 19.93208627 3 22 C4.32 22.66 5.64 23.32 7 24 C7 24.66 7 25.32 7 26 C6.443125 26.226875 5.88625 26.45375 5.3125 26.6875 C2.28427625 28.40622159 0.22676336 30.32788397 -2 33 C-1.95502158 35.27523089 -1.95502158 35.27523089 -1 37 C-3.97 37.495 -3.97 37.495 -7 38 C-7 37.34 -7 36.68 -7 36 C-7.66 36 -8.32 36 -9 36 C-9.33 36.66 -9.66 37.32 -10 38 C-12.4375 39.6875 -12.4375 39.6875 -15 41 C-15.66 40.67 -16.32 40.34 -17 40 C-17 39.34 -17 38.68 -17 38 C-21.95 38.495 -21.95 38.495 -27 39 C-27.33 37.68 -27.66 36.36 -28 35 C-29.60808341 33.66847803 -29.60808341 33.66847803 -31.5625 32.75 C-33.2640625 31.88375 -33.2640625 31.88375 -35 31 C-34.34 30.67 -33.68 30.34 -33 30 C-33.33 28.68 -33.66 27.36 -34 26 C-31.68716092 22.92666807 -29.40574345 20.81793063 -26 19 C-22.35369363 18.50483377 -18.73833042 18.69522728 -15.08032227 18.99609375 C-11.30793283 19.25599322 -9.3422654 19.21408816 -6.08984375 17.1796875 C-1.19721627 12.07672276 -0.4366689 6.77589673 0 0 Z M1 22 C2 25 2 25 2 25 Z " fill="#BCBFC3" transform="translate(113,47)"/>
<path d="M0 0 C6.17764408 0.27456196 10.17789247 1.02176128 15 5 C15.33 5.66 15.66 6.32 16 7 C16.99 7.33 17.98 7.66 19 8 C19.66666667 9.33333333 20.33333333 10.66666667 21 12 C22.94055478 13.6373431 24.73213843 14.86606921 27 16 C27.33546624 17.33279829 27.66828177 18.66626393 28 20 C29.00409146 21.821828 30.02700349 23.63333706 31.0625 25.4375 C34.39096063 32.02206342 35.28407078 37.71408728 34 45 C32.10688729 49.73649376 29.42552848 53.3806501 25 56 C22.0546875 56.36328125 22.0546875 56.36328125 18.875 56.3125 C17.82054688 56.30863281 16.76609375 56.30476563 15.6796875 56.30078125 C13 56 13 56 11 54 C11 53.01 11 52.02 11 51 C11.9075 50.855625 12.815 50.71125 13.75 50.5625 C17.86140459 48.58586318 18.70847801 46.85684165 20.30859375 42.69921875 C22.36426998 34.67395165 21.42988427 27.43141592 18 20 C17.01 20.33 16.02 20.66 15 21 C14.74605469 20.48050781 14.49210937 19.96101563 14.23046875 19.42578125 C10.66794889 11.27795957 10.66794889 11.27795957 4 6 C1.75 4 1.75 4 0 2 C0 1.34 0 0.68 0 0 Z M15 14 C16 16 16 16 16 16 Z M16 16 C17 18 17 18 17 18 Z " fill="#8E9398" transform="translate(79,11)"/>
<path d="M0 0 C21.72340426 -0.76595745 21.72340426 -0.76595745 31 4 C28.4074912 6.5925088 25.66448975 8.68790817 22 9.375 C19.70586534 9.91367611 19.70586534 9.91367611 17.6875 12.4375 C15 15 15 15 11.5625 15.9375 C6.31319293 17.50308281 3.33930533 20.68665443 0.625 25.375 C0.41875 25.91125 0.2125 26.4475 0 27 C-1.65 26.67 -3.3 26.34 -5 26 C-5.33 25.01 -5.66 24.02 -6 23 C-6.66 23 -7.32 23 -8 23 C-8.33 21.35 -8.66 19.7 -9 18 C-8.01 18 -7.02 18 -6 18 C-6.66 17.34 -7.32 16.68 -8 16 C-7.34 15.34 -6.68 14.68 -6 14 C-7.65 14 -9.3 14 -11 14 C-12.58706842 9.8922935 -13.10191901 8.40767604 -12 4 C-8.04 3.34 -4.08 2.68 0 2 C0 1.34 0 0.68 0 0 Z " fill="#8C2D33" transform="translate(49,9)"/>
<path d="M0 0 C6.32168698 3.96359739 6.32168698 3.96359739 7.34375 6.9296875 C7.42367187 7.52394531 7.50359375 8.11820313 7.5859375 8.73046875 C6.48992581 9.73940006 5.38379832 10.737351 4.2734375 11.73046875 C3.65855469 12.28734375 3.04367188 12.84421875 2.41015625 13.41796875 C0.5859375 14.73046875 0.5859375 14.73046875 -2.4140625 14.73046875 C-2.6409375 15.34921875 -2.8678125 15.96796875 -3.1015625 16.60546875 C-4.8051491 19.36365658 -6.41308681 19.68012726 -9.4140625 20.73046875 C-10.0740625 21.39046875 -10.7340625 22.05046875 -11.4140625 22.73046875 C-12.4040625 22.73046875 -13.3940625 22.73046875 -14.4140625 22.73046875 C-14.7440625 24.05046875 -15.0740625 25.37046875 -15.4140625 26.73046875 C-15.7440625 26.73046875 -16.0740625 26.73046875 -16.4140625 26.73046875 C-16.7440625 25.08046875 -17.0740625 23.43046875 -17.4140625 21.73046875 C-18.4040625 21.40046875 -19.3940625 21.07046875 -20.4140625 20.73046875 C-20.85775017 13.80401131 -21.03832894 9.30679005 -16.4140625 3.73046875 C-15.95 2.61671875 -15.95 2.61671875 -15.4765625 1.48046875 C-12.07844716 -4.1164271 -4.94003997 -2.59791746 0 0 Z " fill="#792A30" transform="translate(54.4140625,65.26953125)"/>
<path d="M0 0 C0.66 0.33 1.32 0.66 2 1 C2 3.31 2 5.62 2 8 C0.18960529 8.48706051 -1.62346567 8.96417519 -3.4375 9.4375 C-4.44683594 9.70433594 -5.45617187 9.97117187 -6.49609375 10.24609375 C-15.34037336 12.14904354 -24.10366227 12.15339875 -33.125 12.125 C-34.36121094 12.12886719 -35.59742188 12.13273437 -36.87109375 12.13671875 C-49.09317925 12.12359084 -49.09317925 12.12359084 -54 11 C-54.33 10.34 -54.66 9.68 -55 9 C-53.91114502 9.02356567 -53.91114502 9.02356567 -52.80029297 9.04760742 C-49.49194212 9.11020355 -46.18371619 9.14906912 -42.875 9.1875 C-41.73289062 9.21263672 -40.59078125 9.23777344 -39.4140625 9.26367188 C-33.40519132 9.31607482 -29.26085513 9.21117131 -24 6 C-20.625 6.3125 -20.625 6.3125 -18 7 C-18 5.68 -18 4.36 -18 3 C-18.99902344 2.87882812 -19.99804688 2.75765625 -21.02734375 2.6328125 C-22.31769531 2.46523437 -23.60804687 2.29765625 -24.9375 2.125 C-26.22527344 1.96257812 -27.51304688 1.80015625 -28.83984375 1.6328125 C-30.40412109 1.31957031 -30.40412109 1.31957031 -32 1 C-32.33 0.34 -32.66 -0.32 -33 -1 C-24.17978839 -6.50714705 -9.29089024 -2.56529587 0 0 Z " fill="#F9F9F9" transform="translate(126,103)"/>
<path d="M0 0 C1.18851563 0.00902344 2.37703125 0.01804688 3.6015625 0.02734375 C4.51679687 0.03894531 5.43203125 0.05054688 6.375 0.0625 C6.705 1.3825 7.035 2.7025 7.375 4.0625 C6.6325 4.289375 5.89 4.51625 5.125 4.75 C1.69779471 6.38571161 0.40013239 7.85022104 -1.625 11.0625 C-2.43143833 13.70498033 -3.00627663 16.36663389 -3.625 19.0625 C-4.285 19.7225 -4.945 20.3825 -5.625 21.0625 C-8.10964992 25.15861153 -8.10964992 25.15861153 -8.375 29.8125 C-7.68392557 32.0625 -7.68392557 32.0625 -6.625 34.0625 C-8.875 34.0625 -8.875 34.0625 -11.625 33.0625 C-15.69137409 27.69863154 -16.97729874 21.39502498 -16.44140625 14.8046875 C-15.4736083 8.91808143 -13.01410068 5.06993975 -8.625 1.0625 C-5.74084117 -0.37957941 -3.20778472 -0.03144887 0 0 Z " fill="#6C757A" transform="translate(30.625,51.9375)"/>
<path d="M0 0 C3.870007 5.80501051 3.72338141 11.11983901 3 18 C1.1721342 22.73782815 -1.60320113 26.39765438 -6 29 C-8.9453125 29.36328125 -8.9453125 29.36328125 -12.125 29.3125 C-13.17945312 29.30863281 -14.23390625 29.30476563 -15.3203125 29.30078125 C-18 29 -18 29 -20 27 C-20 26.01 -20 25.02 -20 24 C-19.071875 23.79375 -18.14375 23.5875 -17.1875 23.375 C-13.73995905 22.25553808 -13.73995905 22.25553808 -12.125 18.875 C-11.75375 17.92625 -11.3825 16.9775 -11 16 C-10.67 16.66 -10.34 17.32 -10 18 C-9.34 18 -8.68 18 -8 18 C-7.67 16.02 -7.34 14.04 -7 12 C-6.34 12 -5.68 12 -5 12 C-5.103125 11.13375 -5.20625 10.2675 -5.3125 9.375 C-4.88541057 4.76243413 -3.14957658 3.30705541 0 0 Z " fill="#717A7F" transform="translate(110,38)"/>
<path d="M0 0 C2 2 2 2 2.9375 4.0625 C3.90403542 6.34565884 3.90403542 6.34565884 7 7 C7 7.66 7 8.32 7 9 C6.443125 9.226875 5.88625 9.45375 5.3125 9.6875 C2.28427625 11.40622159 0.22676336 13.32788397 -2 16 C-1.95502158 18.27523089 -1.95502158 18.27523089 -1 20 C-2.98 20.33 -4.96 20.66 -7 21 C-7 20.34 -7 19.68 -7 19 C-7.66 19 -8.32 19 -9 19 C-9.33 19.66 -9.66 20.32 -10 21 C-12.4375 22.6875 -12.4375 22.6875 -15 24 C-15.66 23.67 -16.32 23.34 -17 23 C-17 22.34 -17 21.68 -17 21 C-17.928125 20.566875 -17.928125 20.566875 -18.875 20.125 C-21 19 -21 19 -23 17 C-21.02 16.67 -19.04 16.34 -17 16 C-17 14.35 -17 12.7 -17 11 C-15.68 11.33 -14.36 11.66 -13 12 C-12.67 11.01 -12.34 10.02 -12 9 C-12 9.66 -12 10.32 -12 11 C-11.34 11 -10.68 11 -10 11 C-9.9071875 9.6078125 -9.9071875 9.6078125 -9.8125 8.1875 C-9 5 -9 5 -6.6875 3.25 C-5.800625 2.8375 -4.91375 2.425 -4 2 C-3.236875 1.608125 -2.47375 1.21625 -1.6875 0.8125 C-1.130625 0.544375 -0.57375 0.27625 0 0 Z M1 5 C2 8 2 8 2 8 Z " fill="#F6F6F6" transform="translate(113,64)"/>
<path d="M0 0 C0.66 0.66 1.32 1.32 2 2 C-3.59 4.86 -3.59 4.86 -6.5625 5.875 C-9.21364766 6.91645034 -9.21364766 6.91645034 -11.375 9.5 C-14 12 -14 12 -17.4375 12.9375 C-22.68680707 14.50308281 -25.66069467 17.68665443 -28.375 22.375 C-28.58125 22.91125 -28.7875 23.4475 -29 24 C-30.65 23.67 -32.3 23.34 -34 23 C-35 20 -35 20 -33.8125 17.5 C-31.99945046 14.99924201 -30.68821115 13.50223564 -28 12 C-25.25 11.8125 -25.25 11.8125 -23 12 C-22.979375 11.236875 -22.95875 10.47375 -22.9375 9.6875 C-22.628125 8.800625 -22.31875 7.91375 -22 7 C-18.5 5.3125 -18.5 5.3125 -15 4 C-14.67 3.34 -14.34 2.68 -14 2 C-12.68 2.33 -11.36 2.66 -10 3 C-10 2.01 -10 1.02 -10 0 C-6.4195345 -1.2393919 -3.65498696 -0.87401862 0 0 Z " fill="#A5282C" transform="translate(78,12)"/>
<path d="M0 0 C-0.99 0.495 -0.99 0.495 -2 1 C-2.66 0.67 -3.32 0.34 -4 0 C-4 0.66 -4 1.32 -4 2 C9.86 2.495 9.86 2.495 24 3 C24 3.33 24 3.66 24 4 C20.7 4 17.4 4 14 4 C14 4.66 14 5.32 14 6 C9.68773255 6.11719343 5.37588066 6.18758416 1.0625 6.25 C-0.14986328 6.28351563 -1.36222656 6.31703125 -2.61132812 6.3515625 C-10.00764535 6.43173938 -15.5661111 5.78000295 -22 2 C-20.2109375 -1.8515625 -20.2109375 -1.8515625 -18.3125 -3.1875 C-10.52206504 -5.92467985 -6.63635286 -4.34899314 0 0 Z " fill="#E3E5E6" transform="translate(44,106)"/>
<path d="M0 0 C3.36591866 1.44253657 5.51047079 3.33264727 8 6 C1.37944664 8.91304348 1.37944664 8.91304348 -2 9.6875 C-5.82582681 11.36129923 -7.57998774 13.70805606 -10.19921875 16.890625 C-12.79319161 19.92911816 -15.64393655 22.80692883 -19 25 C-19.99 25 -20.98 25 -22 25 C-26 18.25 -26 18.25 -26 16 C-25.01 15.67 -24.02 15.34 -23 15 C-22.67 16.65 -22.34 18.3 -22 20 C-21.67 19.01 -21.34 18.02 -21 17 C-18.35585098 15.18686925 -15.64014958 13.82699499 -12.75 12.4375 C-9.90101081 11.28993042 -9.90101081 11.28993042 -9 9 C-7.34151823 7.98648336 -5.67334039 6.98879205 -4 6 C-2.31522656 4.68962066 -0.64351457 3.36176922 1 2 C0.67 1.34 0.34 0.68 0 0 Z " fill="#BA2129" transform="translate(61,71)"/>
<path d="M0 0 C0 0.99 0 1.98 0 3 C-0.99 3.495 -0.99 3.495 -2 4 C-1.15695313 4.13277344 -0.31390625 4.26554687 0.5546875 4.40234375 C1.65039062 4.57894531 2.74609375 4.75554687 3.875 4.9375 C4.96554688 5.11152344 6.05609375 5.28554687 7.1796875 5.46484375 C10 6 10 6 12 7 C12 8.32 12 9.64 12 11 C-1.30813314 12.35500992 -14.64062374 12.09794264 -28 12 C-28 11.67 -28 11.34 -28 11 C-22.72 11 -17.44 11 -12 11 C-12 10.34 -12 9.68 -12 9 C-10.68 8.67 -9.36 8.34 -8 8 C-8.33 7.01 -8.66 6.02 -9 5 C-6.03 3.35 -3.06 1.7 0 0 Z " fill="#D7D1D3" transform="translate(96,99)"/>
<path d="M0 0 C4.42857143 5.14285714 4.42857143 5.14285714 5 9 C3.68 9.99 2.36 10.98 1 12 C2.65 12.33 4.3 12.66 6 13 C6.68707555 15.49064888 7 17.37886292 7 20 C5.87980469 19.9278125 4.75960937 19.855625 3.60546875 19.78125 C2.13281566 19.68745044 0.66015923 19.59370317 -0.8125 19.5 C-1.55048828 19.45230469 -2.28847656 19.40460937 -3.04882812 19.35546875 C-6.03824588 19.16609387 -9.00374574 19 -12 19 C-9.84151576 14.76937089 -7.7893744 11.63009846 -4.3125 8.375 C-1.52379485 5.73526415 -0.12137529 4.00538471 0 0 Z M-5 16 C-5 16.33 -5 16.66 -5 17 C-2.69 17 -0.38 17 2 17 C2 16.67 2 16.34 2 16 C-0.31 16 -2.62 16 -5 16 Z " fill="#6B303E" transform="translate(32,15)"/>
<path d="M0 0 C0 4 0 4 -1.64453125 5.81640625 C-2.71767578 6.68072266 -2.71767578 6.68072266 -3.8125 7.5625 C-9.32005545 12.03951857 -9.32005545 12.03951857 -13 18 C-14.65 17.67 -16.3 17.34 -18 17 C-18.50945356 11.65073764 -17.14685711 9.25751256 -14 5 C-13.5359375 3.88625 -13.5359375 3.88625 -13.0625 2.75 C-10.07738657 -2.16665741 -4.89954443 -0.96069499 0 0 Z " fill="#612B34" transform="translate(52,64)"/>
<path d="M0 0 C-0.33 0.66 -0.66 1.32 -1 2 C-1.66 2 -2.32 2 -3 2 C-3.226875 3.11375 -3.45375 4.2275 -3.6875 5.375 C-5 9 -5 9 -7.3125 10.4375 C-9.9692799 10.99357021 -12.29467373 11.15459007 -15 11 C-16.48320272 7.16112237 -17.22419163 4.93795909 -16 1 C-14.0852312 0.63571223 -12.16807707 0.28394694 -10.25 -0.0625 C-9.18265625 -0.25972656 -8.1153125 -0.45695313 -7.015625 -0.66015625 C-4.25228095 -0.97156937 -2.59053383 -0.8991416 0 0 Z " fill="#5D2D3C" transform="translate(53,12)"/>
<path d="M0 0 C1.9375 0.75 1.9375 0.75 4 2 C4.62890625 4.078125 4.62890625 4.078125 5 6 C3.90398831 7.00893131 2.79786082 8.00688225 1.6875 9 C1.07261719 9.556875 0.45773438 10.11375 -0.17578125 10.6875 C-2 12 -2 12 -5 12 C-5.226875 12.61875 -5.45375 13.2375 -5.6875 13.875 C-7.3910866 16.63318783 -8.99902431 16.94965851 -12 18 C-12.66 18.66 -13.32 19.32 -14 20 C-14.99 20 -15.98 20 -17 20 C-17.33 21.32 -17.66 22.64 -18 24 C-18.33 24 -18.66 24 -19 24 C-19.45703125 21.35546875 -19.45703125 21.35546875 -19 18 C-16.86380424 15.67484194 -14.31693845 14.03889898 -11.6875 12.3125 C-10.31499715 11.37314931 -8.9438542 10.43180789 -7.57421875 9.48828125 C-6.96151123 9.08134033 -6.34880371 8.67439941 -5.7175293 8.25512695 C-2.4153206 5.84195639 -0.70620499 4.09598896 0 0 Z " fill="#9F2731" transform="translate(57,68)"/>
<path d="M0 0 C0.66 0.33 1.32 0.66 2 1 C2.4140625 3.28515625 2.4140625 3.28515625 2.625 6.0625 C2.69976563 6.98160156 2.77453125 7.90070313 2.8515625 8.84765625 C2.90054687 9.55792969 2.94953125 10.26820312 3 11 C4.32 11.33 5.64 11.66 7 12 C7 9.36 7 6.72 7 4 C7.33 4 7.66 4 8 4 C8.33 8.62 8.66 13.24 9 18 C7.68 17.67 6.36 17.34 5 17 C4.01 17.33 3.02 17.66 2 18 C-0.33299825 18.03954234 -2.66708189 18.04401732 -5 18 C-5 17.01 -5 16.02 -5 15 C-4.01 14.67 -3.02 14.34 -2 14 C-2.66 13.01 -3.32 12.02 -4 11 C-3.625 7.8125 -3.625 7.8125 -3 5 C-2.34 5 -1.68 5 -1 5 C-0.67 3.35 -0.34 1.7 0 0 Z " fill="#A3A7AA" transform="translate(25,71)"/>
<path d="M0 0 C2 2 2 2 2 5 C1.01 5 0.02 5 -1 5 C-1.103125 5.598125 -1.20625 6.19625 -1.3125 6.8125 C-2.14500965 9.46139433 -2.7189058 10.40323406 -5 12 C-6.7634375 12.2165625 -6.7634375 12.2165625 -8.5625 12.4375 C-10.2640625 12.7159375 -10.2640625 12.7159375 -12 13 C-13.1500831 14.96672915 -13.1500831 14.96672915 -14 17 C-16.625 17.75 -16.625 17.75 -19 18 C-19.33 17.34 -19.66 16.68 -20 16 C-19.01 16 -18.02 16 -17 16 C-17 14.35 -17 12.7 -17 11 C-15.68 11.33 -14.36 11.66 -13 12 C-12.67 11.01 -12.34 10.02 -12 9 C-12 9.66 -12 10.32 -12 11 C-11.34 11 -10.68 11 -10 11 C-9.9071875 9.6078125 -9.9071875 9.6078125 -9.8125 8.1875 C-9 5 -9 5 -6.6875 3.25 C-5.800625 2.8375 -4.91375 2.425 -4 2 C-3.236875 1.608125 -2.47375 1.21625 -1.6875 0.8125 C-1.130625 0.544375 -0.57375 0.27625 0 0 Z " fill="#E2E5E6" transform="translate(113,64)"/>
<path d="M0 0 C3.27075883 -0.0580476 6.54138524 -0.09361165 9.8125 -0.125 C10.74126953 -0.14175781 11.67003906 -0.15851562 12.62695312 -0.17578125 C13.51962891 -0.18222656 14.41230469 -0.18867188 15.33203125 -0.1953125 C16.15421143 -0.20578613 16.9763916 -0.21625977 17.82348633 -0.22705078 C20 0 20 0 23 2 C22.01 2.33 21.02 2.66 20 3 C19.67 3.99 19.34 4.98 19 6 C17.87851563 5.96519531 17.87851563 5.96519531 16.734375 5.9296875 C15.74953125 5.91164063 14.7646875 5.89359375 13.75 5.875 C12.77546875 5.85179687 11.8009375 5.82859375 10.796875 5.8046875 C7.93372787 6.00462794 6.34844762 6.37332298 4 8 C3.67 8.99 3.34 9.98 3 11 C1.68 11 0.36 11 -1 11 C-0.49396008 8.83125748 -0.00016187 7.00032373 1 5 C1.66 5 2.32 5 3 5 C3.33 4.01 3.66 3.02 4 2 C2.68 1.34 1.36 0.68 0 0 Z " fill="#812C32" transform="translate(49,9)"/>
<path d="M0 0 C1.10773342 3.32320026 0.93312508 4.69164744 0 8 C-0.66 8.66 -1.32 9.32 -2 10 C-4.48464992 14.09611153 -4.48464992 14.09611153 -4.75 18.75 C-4.05892557 21 -4.05892557 21 -3 23 C-5.375 22.8125 -5.375 22.8125 -8 22 C-9.50503565 19.46880368 -10.17393871 17.92767312 -9.625 15 C-9.41875 14.34 -9.2125 13.68 -9 13 C-9.06832031 12.21109375 -9.13664062 11.4221875 -9.20703125 10.609375 C-9 8 -9 8 -7.28515625 6.015625 C-6.55167969 5.43296875 -5.81820313 4.8503125 -5.0625 4.25 C-4.33160156 3.65703125 -3.60070312 3.0640625 -2.84765625 2.453125 C-2.23792969 1.97359375 -1.62820312 1.4940625 -1 1 C-0.67 0.67 -0.34 0.34 0 0 Z " fill="#838D92" transform="translate(27,63)"/>
<path d="M0 0 C0.33 0.66 0.66 1.32 1 2 C1.556875 1.608125 2.11375 1.21625 2.6875 0.8125 C3.450625 0.544375 4.21375 0.27625 5 0 C7.75 1.375 7.75 1.375 10 3 C9.01 3.495 9.01 3.495 8 4 C7.34 3.67 6.68 3.34 6 3 C6 3.66 6 4.32 6 5 C19.86 5.495 19.86 5.495 34 6 C34 6.33 34 6.66 34 7 C21.65640122 8.6616383 9.16305508 8.88614866 -3 6 C-2 4 -1 2 0 0 Z " fill="#CDCED2" transform="translate(34,103)"/>
<path d="M0 0 C0.33 0 0.66 0 1 0 C1.52121123 8.81715668 1.04930987 13.58404805 -4.25 20.671875 C-6.85482937 22.64875443 -8.97314213 22.29118896 -12.1875 22.1875 C-13.27417969 22.16042969 -14.36085938 22.13335937 -15.48046875 22.10546875 C-16.72763672 22.05326172 -16.72763672 22.05326172 -18 22 C-18 20.68 -18 19.36 -18 18 C-15.69 18 -13.38 18 -11 18 C-11 17.34 -11 16.68 -11 16 C-9.88625 16.0928125 -9.88625 16.0928125 -8.75 16.1875 C-5.38125289 15.9578127 -4.37649112 15.37649112 -2 13 C-1.08354103 9.82398792 -1.08354103 9.82398792 -0.75 6.3125 C-0.60046875 5.13300781 -0.4509375 3.95351563 -0.296875 2.73828125 C-0.19890625 1.83464844 -0.1009375 0.93101563 0 0 Z " fill="#EF1C23" transform="translate(93,32)"/>
<path d="M0 0 C6.2049038 0.2757735 10.10160999 1.10640794 15 5 C14.42655063 7.86724686 14.1385485 8.8614515 12 11 C12.639375 11.7425 13.27875 12.485 13.9375 13.25 C15.78333407 15.7111121 16.56069174 17.03466926 17 20 C16.34 20.33 15.68 20.66 15 21 C14.74605469 20.48050781 14.49210937 19.96101563 14.23046875 19.42578125 C10.66794889 11.27795957 10.66794889 11.27795957 4 6 C1.75 4 1.75 4 0 2 C0 1.34 0 0.68 0 0 Z " fill="#8D5858" transform="translate(79,11)"/>
<path d="M0 0 C0.33 1.65 0.66 3.3 1 5 C0.01 5.66 -0.98 6.32 -2 7 C-1.67 7.99 -1.34 8.98 -1 10 C-4.96 10 -8.92 10 -13 10 C-13 9.67 -13 9.34 -13 9 C-10.03 9 -7.06 9 -4 9 C-5.48397601 4.8686365 -5.48397601 4.8686365 -8.3828125 4.171875 C-9.28773437 4.03265625 -10.19265625 3.8934375 -11.125 3.75 C-12.03507812 3.60046875 -12.94515625 3.4509375 -13.8828125 3.296875 C-14.58148437 3.19890625 -15.28015625 3.1009375 -16 3 C-13.67865269 0.24108243 -12.13318769 -0.43688742 -8.5625 -0.75 C-7.41974609 -0.86601563 -7.41974609 -0.86601563 -6.25390625 -0.984375 C-3.98333821 -1.00011551 -2.1661875 -0.65133656 0 0 Z " fill="#B5BCBD" transform="translate(31,89)"/>
<path d="M0 0 C0.2475 0.639375 0.495 1.27875 0.75 1.9375 C1.81562433 4.18741541 1.81562433 4.18741541 4.125 4.75 C4.74375 4.8325 5.3625 4.915 6 5 C5.67 5.66 5.34 6.32 5 7 C1.9375 7.625 1.9375 7.625 -1 8 C-1.1546875 8.928125 -1.1546875 8.928125 -1.3125 9.875 C-2 12 -2 12 -5 14 C-5.33 14.99 -5.66 15.98 -6 17 C-7.98 17.33 -9.96 17.66 -12 18 C-12.33 16.35 -12.66 14.7 -13 13 C-11.6078125 12.1028125 -11.6078125 12.1028125 -10.1875 11.1875 C-7.11025486 9.24693632 -7.11025486 9.24693632 -5.375 7.25 C-4 6 -4 6 0 6 C0 4.02 0 2.04 0 0 Z " fill="#CBD0D3" transform="translate(98,68)"/>
<path d="M0 0 C1.32 0 2.64 0 4 0 C4 0.66 4 1.32 4 2 C4.66 2 5.32 2 6 2 C6 1.34 6 0.68 6 0 C7.65 0 9.3 0 11 0 C10.236875 0.70125 9.47375 1.4025 8.6875 2.125 C4.26962935 6.85109419 2.59169748 11.87808662 1 18 C0.67 18 0.34 18 0 18 C-1.12536783 12.65450281 -2.53466037 5.06932075 0 0 Z " fill="#A7AFB1" transform="translate(13,52)"/>
<path d="M0 0 C0 0.66 0 1.32 0 2 C-1.32 2.33 -2.64 2.66 -4 3 C-4 3.66 -4 4.32 -4 5 C-20.8929385 5.18451025 -20.8929385 5.18451025 -28 4 C-28 3.67 -28 3.34 -28 3 C-26.78183594 2.87882812 -25.56367187 2.75765625 -24.30859375 2.6328125 C-22.68486171 2.46386928 -21.06116565 2.29458004 -19.4375 2.125 C-18.63763672 2.04636719 -17.83777344 1.96773438 -17.01367188 1.88671875 C-13.24772579 1.48706733 -9.71817639 1.00068368 -6.09765625 -0.1328125 C-3 -1 -3 -1 0 0 Z " fill="#BDA2A8" transform="translate(88,105)"/>
<path d="M0 0 C-2.01658183 1.58900583 -4.03796886 3.17117615 -6.0625 4.75 C-6.62388672 5.1934375 -7.18527344 5.636875 -7.76367188 6.09375 C-11.67104086 9.13033389 -15.55579223 11.80190444 -20 14 C-20.99 13.67 -21.98 13.34 -23 13 C-23 11.35 -23 9.7 -23 8 C-21.68 8 -20.36 8 -19 8 C-19 8.99 -19 9.98 -19 11 C-18.278125 10.236875 -17.55625 9.47375 -16.8125 8.6875 C-10.86046512 3 -10.86046512 3 -7 3 C-6.67 2.01 -6.34 1.02 -6 0 C-3 -1 -3 -1 0 0 Z " fill="#8C2A30" transform="translate(57,73)"/>
<path d="M0 0 C13.53 0 27.06 0 41 0 C38 3 38 3 35.48803711 3.32470703 C34.5110083 3.30263184 33.53397949 3.28055664 32.52734375 3.2578125 C31.46322266 3.24363281 30.39910156 3.22945313 29.30273438 3.21484375 C28.19220703 3.18519531 27.08167969 3.15554687 25.9375 3.125 C23.73835952 3.0817549 21.53913603 3.04248903 19.33984375 3.0078125 C18.36394287 2.98348145 17.38804199 2.95915039 16.38256836 2.93408203 C13.98277278 2.83265274 13.98277278 2.83265274 12 4 C9.94938967 3.75290429 7.90747329 3.43007496 5.875 3.0625 C4.77929688 2.86785156 3.68359375 2.67320313 2.5546875 2.47265625 C1.71164063 2.31667969 0.86859375 2.16070312 0 2 C0 1.34 0 0.68 0 0 Z " fill="#EBEAED" transform="translate(58,110)"/>
<path d="M0 0 C0.33 0.66 0.66 1.32 1 2 C1.66 2 2.32 2 3 2 C3.20496094 2.91523437 3.40992187 3.83046875 3.62109375 4.7734375 C3.89050781 5.96195313 4.15992187 7.15046875 4.4375 8.375 C4.70433594 9.55835938 4.97117187 10.74171875 5.24609375 11.9609375 C5.85634695 14.89494581 5.85634695 14.89494581 7 17 C6.67 17.99 6.34 18.98 6 20 C5.34 20 4.68 20 4 20 C3.67 21.98 3.34 23.96 3 26 C2.34 26 1.68 26 1 26 C1.03480469 24.28103516 1.03480469 24.28103516 1.0703125 22.52734375 C1.08908479 20.9974024 1.10728341 19.46745394 1.125 17.9375 C1.14175781 17.18533203 1.15851563 16.43316406 1.17578125 15.65820312 C1.20821943 11.91159281 1.03891134 8.66159646 -0.0703125 5.06640625 C-1 2 -1 2 0 0 Z " fill="#9CA1A4" transform="translate(99,30)"/>
<path d="M0 0 C0.66 0.66 1.32 1.32 2 2 C-3.59 4.86 -3.59 4.86 -6.5625 5.875 C-9.25316869 6.93552923 -9.25316869 6.93552923 -11.5625 9.6875 C-12.366875 10.450625 -13.17125 11.21375 -14 12 C-16.15234375 11.64453125 -16.15234375 11.64453125 -18 11 C-17.43410156 10.54109375 -16.86820313 10.0821875 -16.28515625 9.609375 C-15.18494141 8.68898438 -15.18494141 8.68898438 -14.0625 7.75 C-13.33160156 7.14671875 -12.60070312 6.5434375 -11.84765625 5.921875 C-9.84583899 3.83964647 -9.64486746 2.71890066 -9 0 C-5.47955362 -1.17348213 -3.57539179 -0.83679382 0 0 Z " fill="#AE202C" transform="translate(78,12)"/>
<path d="M0 0 C2 1 2 1 2.8515625 3.06640625 C3.10679688 3.89011719 3.36203125 4.71382812 3.625 5.5625 C3.88539062 6.38878906 4.14578125 7.21507812 4.4140625 8.06640625 C4.60742188 8.70449219 4.80078125 9.34257812 5 10 C5.66 10 6.32 10 7 10 C7 10.66 7 11.32 7 12 C8.98 11.67 10.96 11.34 13 11 C11.68 11.99 10.36 12.98 9 14 C9.99 15.485 9.99 15.485 11 17 C9.68 16.67 8.36 16.34 7 16 C7.33 17.32 7.66 18.64 8 20 C7.34 20 6.68 20 6 20 C4 18 4 18 3 16 C1.02 16.33 -0.96 16.66 -3 17 C-1.04783565 15.04783565 0.53199953 14.15173355 3 13 C2.7834375 12.39671875 2.566875 11.7934375 2.34375 11.171875 C2.0653125 10.37265625 1.786875 9.5734375 1.5 8.75 C1.2215625 7.96109375 0.943125 7.1721875 0.65625 6.359375 C0 4 0 4 0 0 Z " fill="#B18185" transform="translate(33,11)"/>
<path d="M0 0 C0.763125 0.804375 1.52625 1.60875 2.3125 2.4375 C4.79430898 5.16799024 4.79430898 5.16799024 8 6 C8.33 6.99 8.66 7.98 9 9 C10.95597184 10.39712274 12.95436401 11.73779907 15 13 C14.01 13.495 14.01 13.495 13 14 C10.60003358 12.84908674 8.35494092 11.64995037 6.0625 10.3125 C5.42892578 9.95994141 4.79535156 9.60738281 4.14257812 9.24414062 C0.66497167 7.24387698 -1.89166518 5.44646615 -4 2 C-2.68 1.34 -1.36 0.68 0 0 Z " fill="#82898C" transform="translate(32,93)"/>
<path d="M0 0 C0.66 0.33 1.32 0.66 2 1 C2.40729228 3.32156597 2.74438677 5.6568787 3 8 C2.34 8 1.68 8 1 8 C1 8.66 1 9.32 1 10 C2.98 10.66 4.96 11.32 7 12 C6.67 12.66 6.34 13.32 6 14 C4.32819726 13.05065487 2.66266064 12.09026687 1 11.125 C-0.3921875 10.32449219 -0.3921875 10.32449219 -1.8125 9.5078125 C-2.534375 9.01023437 -3.25625 8.51265625 -4 8 C-4 7.34 -4 6.68 -4 6 C-5.45833358 4.37485532 -5.45833358 4.37485532 -7 3 C-5.02 3 -3.04 3 -1 3 C-0.67 2.01 -0.34 1.02 0 0 Z " fill="#DFD8DD" transform="translate(77,69)"/>
<path d="M0 0 C3 1 3 1 4 3 C4.763125 3.28875 5.52625 3.5775 6.3125 3.875 C9.33684297 5.14100403 10.89044408 6.51373767 13 9 C13.33 9.99 13.66 10.98 14 12 C11.04705712 11.35632481 8.51718012 10.40722839 5.8125 9.0625 C5.11769531 8.72347656 4.42289062 8.38445313 3.70703125 8.03515625 C2 7 2 7 1 5 C0.01 4.67 -0.98 4.34 -2 4 C-2 2 -2 2 0 0 Z " fill="#F2F0F5" transform="translate(62,48)"/>
<path d="M0 0 C1.9587043 0.14076315 3.91696093 0.2877676 5.875 0.4375 C7.51082031 0.55931641 7.51082031 0.55931641 9.1796875 0.68359375 C12 1 12 1 14 2 C14 3.32 14 4.64 14 6 C11.03 6 8.06 6 5 6 C5.33 4.68 5.66 3.36 6 2 C4.35 2 2.7 2 1 2 C0.67 1.34 0.34 0.68 0 0 Z " fill="#E5E4E7" transform="translate(94,104)"/>
<path d="M0 0 C8.58 0.66 17.16 1.32 26 2 C26 2.33 26 2.66 26 3 C8.03071914 5.10079275 8.03071914 5.10079275 0 1 C0 0.67 0 0.34 0 0 Z " fill="#B64049" transform="translate(52,104)"/>
<path d="M0 0 C0.33 0 0.66 0 1 0 C1.33 4.62 1.66 9.24 2 14 C0.68 13.67 -0.64 13.34 -2 13 C-2.99 13.33 -3.98 13.66 -5 14 C-7.33299825 14.03954234 -9.66708189 14.04401732 -12 14 C-9.78877592 12.85343936 -7.670069 11.88490779 -5.3125 11.0625 C-4.549375 10.711875 -3.78625 10.36125 -3 10 C-2.67 9.01 -2.34 8.02 -2 7 C-1.34 7.33 -0.68 7.66 0 8 C0 5.36 0 2.72 0 0 Z " fill="#B9A7B2" transform="translate(32,75)"/>
<path d="M0 0 C2.0625 0.4375 2.0625 0.4375 4 1 C1.62202997 3.62828266 -0.95329341 5.216562 -4 7 C-5.34631825 7.98244845 -6.68441297 8.97676564 -8 10 C-11 5.25 -11 5.25 -11 3 C-10.01 2.67 -9.02 2.34 -8 2 C-7.67 3.65 -7.34 5.3 -7 7 C-6.67 6.01 -6.34 5.02 -6 4 C-3.5 2.375 -3.5 2.375 -1 1 C-0.67 0.67 -0.34 0.34 0 0 Z " fill="#AD252B" transform="translate(46,84)"/>
<path d="M0 0 C2 2 2 2 2 5 C0.7934375 5.4640625 0.7934375 5.4640625 -0.4375 5.9375 C-2.89080405 6.76335345 -2.89080405 6.76335345 -4 8 C-5.66617115 8.04063832 -7.33388095 8.042721 -9 8 C-9 7.01 -9 6.02 -9 5 C-6.15501823 3.02431822 -3.11743233 1.50098594 0 0 Z " fill="#D5D7D9" transform="translate(113,64)"/>
<path d="M0 0 C1.74965358 -0.05429959 3.49979787 -0.09292823 5.25 -0.125 C6.22453125 -0.14820313 7.1990625 -0.17140625 8.203125 -0.1953125 C11.0196498 0.00137219 12.60949036 0.55431084 15 2 C10.13948404 4.59227518 5.34728867 4.18689553 0 4 C0 2.68 0 1.36 0 0 Z " fill="#E5161F" transform="translate(75,50)"/>
<path d="M0 0 C0 0.66 0 1.32 0 2 C-2.31 1.67 -4.62 1.34 -7 1 C-6.67 2.32 -6.34 3.64 -6 5 C-9.3 4.34 -12.6 3.68 -16 3 C-12.91374617 -0.08625383 -12.56526744 -0.39899847 -8.5625 -0.75 C-7.41974609 -0.86601563 -7.41974609 -0.86601563 -6.25390625 -0.984375 C-3.98333821 -1.00011551 -2.1661875 -0.65133656 0 0 Z " fill="#CED1D3" transform="translate(31,89)"/>
<path d="M0 0 C1.65 0 3.3 0 5 0 C4.8125 2.375 4.8125 2.375 4 5 C1.11090151 6.59660706 -0.69058796 7 -4 7 C-4 5.68 -4 4.36 -4 3 C-3.01 2.67 -2.02 2.34 -1 2 C-0.67 1.34 -0.34 0.68 0 0 Z " fill="#702E3B" transform="translate(44,16)"/>
<path d="M0 0 C1.65 0 3.3 0 5 0 C4.01 0.495 4.01 0.495 3 1 C2.835 1.66 2.67 2.32 2.5 3 C2.335 3.66 2.17 4.32 2 5 C1.01 5.495 1.01 5.495 0 6 C-0.33 6.99 -0.66 7.98 -1 9 C-2.32 9 -3.64 9 -5 9 C-4.49396008 6.83125748 -4.00016187 5.00032373 -3 3 C-2.34 3 -1.68 3 -1 3 C-0.67 2.01 -0.34 1.02 0 0 Z " fill="#752934" transform="translate(53,11)"/>
<path d="M0 0 C0.33 0.99 0.66 1.98 1 3 C0.01 3.99 -0.98 4.98 -2 6 C-1.34 6.66 -0.68 7.32 0 8 C-1.1875 9.5625 -1.1875 9.5625 -3 11 C-5.6875 10.6875 -5.6875 10.6875 -8 10 C-8 8.68 -8 7.36 -8 6 C-5.125 3.875 -5.125 3.875 -2 2 C-1.34 1.34 -0.68 0.68 0 0 Z " fill="#D6C7C6" transform="translate(93,75)"/>
<path d="M0 0 C6.1105424 -0.11269443 11.95170514 0.10395632 18 1 C16.453125 2.55078125 16.453125 2.55078125 14 4 C10.546875 3.85546875 10.546875 3.85546875 6.75 3.1875 C5.48671875 2.97480469 4.2234375 2.76210937 2.921875 2.54296875 C1.47554687 2.27419922 1.47554687 2.27419922 0 2 C0 1.34 0 0.68 0 0 Z " fill="#F4F1F1" transform="translate(58,110)"/>
<path d="M0 0 C2.02558881 3.34939881 2.21738987 5.86962551 2.125 9.75 C2.10695313 10.73484375 2.08890625 11.7196875 2.0703125 12.734375 C2.03550781 13.85585938 2.03550781 13.85585938 2 15 C0.68 15 -0.64 15 -2 15 C-2.33 14.34 -2.66 13.68 -3 13 C-2.34249689 11.66212411 -1.6743074 10.32948552 -1 9 C-0.55188863 6.64435404 -0.55188863 6.64435404 -0.375 4.25 C-0.30023438 3.45078125 -0.22546875 2.6515625 -0.1484375 1.828125 C-0.09945312 1.22484375 -0.05046875 0.6215625 0 0 Z " fill="#B5B9BD" transform="translate(113,47)"/>
<path d="M0 0 C4.01719395 4.26066025 4.01719395 4.26066025 3.9375 7.6875 C3 10 3 10 0 12 C0 8.04 0 4.08 0 0 Z " fill="#82888F" transform="translate(106,31)"/>
<path d="M0 0 C0.66 0.99 1.32 1.98 2 3 C1.34 3 0.68 3 0 3 C0 4.98 0 6.96 0 9 C-1.65 9.33 -3.3 9.66 -5 10 C-5.33 9.34 -5.66 8.68 -6 8 C-4.02 5.36 -2.04 2.72 0 0 Z " fill="#653845" transform="translate(26,25)"/>
<path d="M0 0 C0.99 0.33 1.98 0.66 3 1 C-0.49359465 4.59634744 -4.11098131 7.83451967 -8 11 C-6.52670958 5.99081256 -3.72484762 3.48192278 0 0 Z " fill="#788086" transform="translate(27,60)"/>
<path d="M0 0 C3.68802044 1.22934015 4.72356973 2.93859378 7 6 C6.01 7.485 6.01 7.485 5 9 C3.68 9 2.36 9 1 9 C0.67 6.03 0.34 3.06 0 0 Z " fill="#DAD4D7" transform="translate(39,31)"/>
<path d="M0 0 C4.42857143 5.14285714 4.42857143 5.14285714 5 9 C2.03 8.505 2.03 8.505 -1 8 C-0.67 5.36 -0.34 2.72 0 0 Z " fill="#6E414B" transform="translate(32,15)"/>
<path d="M0 0 C2.97 0.33 5.94 0.66 9 1 C8.01 1.495 8.01 1.495 7 2 C7 3.65 7 5.3 7 7 C4.625 6.3125 4.625 6.3125 2 5 C0.6875 2.375 0.6875 2.375 0 0 Z " fill="#735C62" transform="translate(79,11)"/>
<path d="M0 0 C0.99 0 1.98 0 3 0 C3.33 2.97 3.66 5.94 4 9 C2.68 8.67 1.36 8.34 0 8 C-0.79953138 4.71303767 -1.09658936 3.28976808 0 0 Z " fill="#939C9E" transform="translate(22,76)"/>
<path d="M0 0 C0.33 1.65 0.66 3.3 1 5 C-1.31 4.67 -3.62 4.34 -6 4 C-6 2.68 -6 1.36 -6 0 C-3.50907189 -1.24546405 -2.58919267 -0.7767578 0 0 Z " fill="#6D7175" transform="translate(96,62)"/>
<path d="M0 0 C0.99 0.33 1.98 0.66 3 1 C4.1875 3.5625 4.1875 3.5625 5 6 C1.88742431 6 -0.10765685 5.82638376 -3 5 C-3 4.01 -3 3.02 -3 2 C-2.01 1.34 -1.02 0.68 0 0 Z " fill="#7D858E" transform="translate(95,18)"/>
<path d="M0 0 C3 1 3 1 4 3 C4.99 3.33 5.98 3.66 7 4 C7 4.99 7 5.98 7 7 C5.35 7 3.7 7 2 7 C1.67 6.34 1.34 5.68 1 5 C0.01 4.67 -0.98 4.34 -2 4 C-2 2 -2 2 0 0 Z " fill="#E8ECEE" transform="translate(62,48)"/>
<path d="M0 0 C6.875 2.75 6.875 2.75 8 5 C5.75 5.6875 5.75 5.6875 3 6 C0.6875 4.5625 0.6875 4.5625 -1 3 C-0.67 2.01 -0.34 1.02 0 0 Z " fill="#F2DDDB" transform="translate(41,99)"/>
<path d="M0 0 C7.50769231 0.61538462 7.50769231 0.61538462 10 2.5625 C10.33 3.036875 10.66 3.51125 11 4 C9.4375 4.75 9.4375 4.75 7 5 C4.49713591 3.86915563 2.32992278 2.47860484 0 1 C0 0.67 0 0.34 0 0 Z " fill="#C62E34" transform="translate(43,99)"/>
<path d="M0 0 C0.33 0.66 0.66 1.32 1 2 C0.67 2.99 0.34 3.98 0 5 C-0.66 5 -1.32 5 -2 5 C-2.33 6.98 -2.66 8.96 -3 11 C-3.66 11 -4.32 11 -5 11 C-4.67 8.36 -4.34 5.72 -4 3 C-3.01 3 -2.02 3 -1 3 C-0.67 2.01 -0.34 1.02 0 0 Z " fill="#868F94" transform="translate(105,45)"/>
<path d="M0 0 C7.26 0 14.52 0 22 0 C22 0.33 22 0.66 22 1 C14.74 1 7.48 1 0 1 C0 0.67 0 0.34 0 0 Z " fill="#FEFEFE" transform="translate(82,116)"/>
<path d="M0 0 C7.26 0 14.52 0 22 0 C22 0.33 22 0.66 22 1 C14.74 1 7.48 1 0 1 C0 0.67 0 0.34 0 0 Z " fill="#FEFEFE" transform="translate(24,116)"/>
<path d="M0 0 C1.32 0.66 2.64 1.32 4 2 C3.01 2.495 3.01 2.495 2 3 C1.34 2.67 0.68 2.34 0 2 C0 2.66 0 3.32 0 4 C0.99 4.33 1.98 4.66 3 5 C0.69 5 -1.62 5 -4 5 C-3 2 -3 2 0 0 Z " fill="#C4C6C7" transform="translate(40,104)"/>
<path d="M0 0 C0 0.66 0 1.32 0 2 C-3.63 1.67 -7.26 1.34 -11 1 C-6.8204355 -1.78637633 -4.85331323 -0.79562512 0 0 Z " fill="#F2EDF3" transform="translate(105,103)"/>
<path d="M0 0 C1.65 0.33 3.3 0.66 5 1 C3.29374499 3.78388975 2.52373261 4.85384206 -0.6875 5.75 C-1.8321875 5.87375 -1.8321875 5.87375 -3 6 C-2.01 4.02 -1.02 2.04 0 0 Z " fill="#9EADAC" transform="translate(20,34)"/>
<path d="M0 0 C0.33 1.32 0.66 2.64 1 4 C-1.3125 5.5625 -1.3125 5.5625 -4 7 C-4.99 6.67 -5.98 6.34 -7 6 C-6.01 4.68 -5.02 3.36 -4 2 C-2.68 2.33 -1.36 2.66 0 3 C0 2.01 0 1.02 0 0 Z " fill="#A0292D" transform="translate(68,12)"/>
<path d="M0 0 C1.9375 0.8125 1.9375 0.8125 4 2 C4.33 2.99 4.66 3.98 5 5 C3.35 5 1.7 5 0 5 C-0.5625 3.0625 -0.5625 3.0625 -1 1 C-0.67 0.67 -0.34 0.34 0 0 Z " fill="#718385" transform="translate(87,13)"/>
<path d="M0 0 C1.98 0.66 3.96 1.32 6 2 C6 2.33 6 2.66 6 3 C2.37 3 -1.26 3 -5 3 C-3.68 2.34 -2.36 1.68 -1 1 C-0.67 0.67 -0.34 0.34 0 0 Z " fill="#A39B9B" transform="translate(53,105)"/>
<path d="M0 0 C-2.64 1.65 -5.28 3.3 -8 5 C-8.33 3.68 -8.66 2.36 -9 1 C-3.375 -1.125 -3.375 -1.125 0 0 Z " fill="#B3B9BD" transform="translate(108,66)"/>
<path d="M0 0 C0.33 0 0.66 0 1 0 C1 5.94 1 11.88 1 18 C0.67 18 0.34 18 0 18 C0 12.06 0 6.12 0 0 Z " fill="#CBCDCE" transform="translate(116,51)"/>
<path d="M0 0 C0.66 0.33 1.32 0.66 2 1 C2.33 1.99 2.66 2.98 3 4 C1.02 4.99 1.02 4.99 -1 6 C-1.33 5.34 -1.66 4.68 -2 4 C-1.0625 1.875 -1.0625 1.875 0 0 Z " fill="#D3D4D3" transform="translate(77,69)"/>
<path d="M0 0 C1.32 0 2.64 0 4 0 C3.814375 0.61875 3.62875 1.2375 3.4375 1.875 C2.76313824 4.04160178 2.76313824 4.04160178 4 6 C2.68 5.34 1.36 4.68 0 4 C0 2.68 0 1.36 0 0 Z " fill="#EEEDEF" transform="translate(60,64)"/>
<path d="M0 0 C1.65 0.33 3.3 0.66 5 1 C4.01 1.495 4.01 1.495 3 2 C2.67 2.99 2.34 3.98 2 5 C1.01 4.67 0.02 4.34 -1 4 C-0.67 2.68 -0.34 1.36 0 0 Z " fill="#F3F3F6" transform="translate(55,60)"/>
<path d="M0 0 C1.98 0.99 1.98 0.99 4 2 C3.01 2.495 3.01 2.495 2 3 C2.33 3.99 2.66 4.98 3 6 C2.01 6 1.02 6 0 6 C0 4.02 0 2.04 0 0 Z M4 1 C6 2 6 2 6 2 Z " fill="#677377" transform="translate(97,58)"/>
<path d="M0 0 C2.1875 0.3125 2.1875 0.3125 4 1 C3.67 2.32 3.34 3.64 3 5 C1.02 4.34 -0.96 3.68 -3 3 C-1.75 1.4375 -1.75 1.4375 0 0 Z " fill="#E8E7EB" transform="translate(48,56)"/>
<path d="M0 0 C1.32 0.66 2.64 1.32 4 2 C4 2.99 4 3.98 4 5 C1.69 4.67 -0.62 4.34 -3 4 C-2.34 3.67 -1.68 3.34 -1 3 C-0.67 2.01 -0.34 1.02 0 0 Z " fill="#D6B0B5" transform="translate(35,30)"/>
<path d="M0 0 C2.1875 0.3125 2.1875 0.3125 4 1 C2.75 2.5625 2.75 2.5625 1 4 C-1.1875 3.6875 -1.1875 3.6875 -3 3 C-1.75 1.4375 -1.75 1.4375 0 0 Z " fill="#B82227" transform="translate(63,20)"/>
<path d="M0 0 C1.36421031 2.72842061 0.87807211 4.60953318 0.5625 7.625 C0.46066406 8.62789062 0.35882813 9.63078125 0.25390625 10.6640625 C0.17011719 11.43492188 0.08632812 12.20578125 0 13 C-0.33 13 -0.66 13 -1 13 C-1.02686553 11.02090602 -1.04633375 9.04171029 -1.0625 7.0625 C-1.07410156 5.96035156 -1.08570312 4.85820313 -1.09765625 3.72265625 C-1 1 -1 1 0 0 Z " fill="#CF2D36" transform="translate(96,31)"/>
<path d="M0 0 C0.33 0 0.66 0 1 0 C1 3.63 1 7.26 1 11 C0.67 11 0.34 11 0 11 C0 7.37 0 3.74 0 0 Z " fill="#7E8282" transform="translate(10,53)"/>
<path d="M0 0 C0.33 0 0.66 0 1 0 C1 3.63 1 7.26 1 11 C0.67 11 0.34 11 0 11 C0 7.37 0 3.74 0 0 Z " fill="#94A4A8" transform="translate(99,40)"/>
<path d="M0 0 C2.31 0 4.62 0 7 0 C7 0.33 7 0.66 7 1 C4.69 1 2.38 1 0 1 C0 0.67 0 0.34 0 0 Z " fill="#F40807" transform="translate(78,54)"/>
<path d="M0 0 C1.98 0 3.96 0 6 0 C6 0.33 6 0.66 6 1 C4.02 1 2.04 1 0 1 C0 0.67 0 0.34 0 0 Z " fill="#FDFDFD" transform="translate(71,115)"/>
<path d="M0 0 C1.98 0 3.96 0 6 0 C6 0.33 6 0.66 6 1 C4.02 1 2.04 1 0 1 C0 0.67 0 0.34 0 0 Z " fill="#FDFDFD" transform="translate(50,115)"/>
<path d="M0 0 C1.98 0 3.96 0 6 0 C6 0.33 6 0.66 6 1 C4.02 1 2.04 1 0 1 C0 0.67 0 0.34 0 0 Z " fill="#FDFDFD" transform="translate(13,115)"/>
<path d="M0 0 C0.99 0 1.98 0 3 0 C2.67 0.99 2.34 1.98 2 3 C1.34 2.67 0.68 2.34 0 2 C0 1.34 0 0.68 0 0 Z " fill="#93443D" transform="translate(35,94)"/>
<path d="M0 0 C0.33 0 0.66 0 1 0 C1 1.98 1 3.96 1 6 C0.67 6 0.34 6 0 6 C0 4.02 0 2.04 0 0 Z " fill="#9A9B9D" transform="translate(28,75)"/>
<path d="M0 0 C0.33 0 0.66 0 1 0 C1 1.98 1 3.96 1 6 C0.67 6 0.34 6 0 6 C0 4.02 0 2.04 0 0 Z " fill="#8F9296" transform="translate(28,66)"/>
<path d="M0 0 C0.33 0 0.66 0 1 0 C1 1.98 1 3.96 1 6 C0.67 6 0.34 6 0 6 C0 4.02 0 2.04 0 0 Z " fill="#A8AEAE" transform="translate(11,65)"/>
<path d="M0 0 C0.33 0 0.66 0 1 0 C1 1.98 1 3.96 1 6 C0.67 6 0.34 6 0 6 C0 4.02 0 2.04 0 0 Z " fill="#A1A4A5" transform="translate(11,47)"/>
<path d="M0 0 C1.65 0 3.3 0 5 0 C5 0.33 5 0.66 5 1 C3.35 1 1.7 1 0 1 C0 0.67 0 0.34 0 0 Z " fill="#FDFDFD" transform="translate(109,115)"/>
<path d="M0 0 C1.65 0 3.3 0 5 0 C5 0.33 5 0.66 5 1 C3.35 1 1.7 1 0 1 C0 0.67 0 0.34 0 0 Z " fill="#FDFDFC" transform="translate(112,99)"/>
<path d="M0 0 C1.65 0 3.3 0 5 0 C5 0.33 5 0.66 5 1 C3.35 1 1.7 1 0 1 C0 0.67 0 0.34 0 0 Z " fill="#FCFBFC" transform="translate(10,99)"/>
<path d="M0 0 C1 4 1 4 1 4 Z " fill="#8C9194" transform="translate(115,47)"/>
<path d="M0 0 C4 1 4 1 4 1 Z " fill="#503D41" transform="translate(45,10)"/>
<path d="M0 0 C3 1 3 1 3 1 Z " fill="#FCFCFC" transform="translate(117,114)"/>
<path d="M0 0 C3 1 3 1 3 1 Z " fill="#FDFCFD" transform="translate(66,114)"/>
<path d="M0 0 C3 1 3 1 3 1 Z " fill="#FEFEFE" transform="translate(59,114)"/>
<path d="M0 0 C3 1 3 1 3 1 Z " fill="#FEFEFE" transform="translate(8,114)"/>
<path d="M0 0 C3 1 3 1 3 1 Z " fill="#FEFEFE" transform="translate(122,113)"/>
<path d="M0 0 C3 1 3 1 3 1 Z " fill="#FEFEFE" transform="translate(5,100)"/>
<path d="" fill="#577770" transform="translate(0,0)"/>
<path d="" fill="#9D9EAE" transform="translate(0,0)"/>
<path d="" fill="#535859" transform="translate(0,0)"/>
<path d="" fill="#9A989C" transform="translate(0,0)"/>
<path d="" fill="#D4DAE1" transform="translate(0,0)"/>
<path d="M0 0 C3 1 3 1 3 1 Z " fill="#E6E9E9" transform="translate(85,62)"/>
<path d="" fill="#6B7679" transform="translate(0,0)"/>
<path d="" fill="#789AAD" transform="translate(0,0)"/>
<path d="" fill="#596163" transform="translate(0,0)"/>
<path d="" fill="#8C8E90" transform="translate(0,0)"/>
<path d="" fill="#8D8E8F" transform="translate(0,0)"/>
<path d="" fill="#434647" transform="translate(0,0)"/>
<path d="" fill="#989C9F" transform="translate(0,0)"/>
<path d="" fill="#8D9092" transform="translate(0,0)"/>
<path d="M0 0 C3 1 3 1 3 1 Z " fill="#362427" transform="translate(42,11)"/>
<path d="M0 0 C2 1 2 1 2 1 Z " fill="#FDFDFD" transform="translate(63,113)"/>
<path d="M0 0 C2 1 2 1 2 1 Z " fill="#FEFEFE" transform="translate(4,113)"/>
<path d="M0 0 C2 1 2 1 2 1 Z " fill="#FEFEFE" transform="translate(125,112)"/>
<path d="M0 0 C2 1 2 1 2 1 Z " fill="#FFFFFF" transform="translate(0,112)"/>
<path d="M0 0 C2 1 2 1 2 1 Z " fill="#FEFEFE" transform="translate(2,101)"/>
<path d="M0 0 C2 1 2 1 2 1 Z " fill="#FDFDFD" transform="translate(120,100)"/>
<path d="" fill="#A4A8A9" transform="translate(0,0)"/>
<path d="" fill="#A22420" transform="translate(0,0)"/>
<path d="" fill="#DFCBC8" transform="translate(0,0)"/>
<path d="" fill="#FFFFFE" transform="translate(0,0)"/>
<path d="" fill="#89040A" transform="translate(0,0)"/>
<path d="" fill="#7E5453" transform="translate(0,0)"/>
<path d="" fill="#B7C0C1" transform="translate(0,0)"/>
<path d="" fill="#FCFBFA" transform="translate(0,0)"/>
<path d="" fill="#577E85" transform="translate(0,0)"/>
<path d="M0 0 C2 1 2 1 2 1 Z " fill="#DA060A" transform="translate(69,77)"/>
<path d="M0 0 C2 1 2 1 2 1 Z " fill="#CCB1BB" transform="translate(71,75)"/>
<path d="" fill="#520F4F" transform="translate(0,0)"/>
<path d="" fill="#270F19" transform="translate(0,0)"/>
<path d="" fill="#7A8288" transform="translate(0,0)"/>
<path d="" fill="#9CA5A9" transform="translate(0,0)"/>
<path d="" fill="#B21411" transform="translate(0,0)"/>
<path d="" fill="#E41013" transform="translate(0,0)"/>
<path d="" fill="#929999" transform="translate(0,0)"/>
<path d="M0 0 C2 1 2 1 2 1 Z " fill="#C71920" transform="translate(51,37)"/>
<path d="M0 0 C2 1 2 1 2 1 Z " fill="#B80000" transform="translate(49,36)"/>
<path d="" fill="#76778D" transform="translate(0,0)"/>
<path d="" fill="#464952" transform="translate(0,0)"/>
<path d="" fill="#3D0602" transform="translate(0,0)"/>
<path d="" fill="#56333C" transform="translate(0,0)"/>
<path d="M0 0 C2 1 2 1 2 1 Z " fill="#8D747E" transform="translate(81,10)"/>
<path d="" fill="#FEFEFE" transform="translate(0,0)"/>
<path d="" fill="#FDFDFD" transform="translate(0,0)"/>
<path d="" fill="#FAFAFA" transform="translate(0,0)"/>
<path d="" fill="#DE5057" transform="translate(0,0)"/>
<path d="" fill="#907F7C" transform="translate(0,0)"/>
<path d="" fill="#C33044" transform="translate(0,0)"/>
<path d="" fill="#906D70" transform="translate(0,0)"/>
<path d="" fill="#EF080D" transform="translate(0,0)"/>
<path d="" fill="#8F0014" transform="translate(0,0)"/>
<path d="" fill="#D50A0F" transform="translate(0,0)"/>
<path d="" fill="#DF0F18" transform="translate(0,0)"/>
<path d="" fill="#90110E" transform="translate(0,0)"/>
<path d="" fill="#C7A894" transform="translate(0,0)"/>
<path d="" fill="#FAF4F2" transform="translate(0,0)"/>
<path d="" fill="#FFFFFF" transform="translate(0,0)"/>
<path d="" fill="#FF9486" transform="translate(0,0)"/>
<path d="" fill="#7B8284" transform="translate(0,0)"/>
<path d="" fill="#940300" transform="translate(0,0)"/>
<path d="" fill="#F2FAF5" transform="translate(0,0)"/>
<path d="" fill="#88898D" transform="translate(0,0)"/>
<path d="" fill="#759A94" transform="translate(0,0)"/>
<path d="" fill="#FFFCF1" transform="translate(0,0)"/>
<path d="" fill="#FDFDFD" transform="translate(0,0)"/>
<path d="" fill="#F9F9F9" transform="translate(0,0)"/>
<path d="" fill="#EFFDFF" transform="translate(0,0)"/>
<path d="" fill="#614B57" transform="translate(0,0)"/>
<path d="" fill="#4D303C" transform="translate(0,0)"/>
<path d="" fill="#563844" transform="translate(0,0)"/>
<path d="" fill="#4C363E" transform="translate(0,0)"/>
<path d="" fill="#463A3E" transform="translate(0,0)"/>
<path d="" fill="#72787D" transform="translate(0,0)"/>
<path d="" fill="#797F84" transform="translate(0,0)"/>
<path d="" fill="#524F52" transform="translate(0,0)"/>
<path d="" fill="#817983" transform="translate(0,0)"/>
<path d="" fill="#809796" transform="translate(0,0)"/>
<path d="" fill="#5B6288" transform="translate(0,0)"/>
<path d="" fill="#E80B35" transform="translate(0,0)"/>
<path d="" fill="#FFFFFF" transform="translate(0,0)"/>
<path d="" fill="#BC0000" transform="translate(0,0)"/>
<path d="" fill="#ED1304" transform="translate(0,0)"/>
<path d="" fill="#A40721" transform="translate(0,0)"/>
<path d="" fill="#D91016" transform="translate(0,0)"/>
<path d="" fill="#FFFCFE" transform="translate(0,0)"/>
<path d="" fill="#8A8C8E" transform="translate(0,0)"/>
<path d="" fill="#AAABAF" transform="translate(0,0)"/>
<path d="" fill="#84868C" transform="translate(0,0)"/>
<path d="" fill="#646192" transform="translate(0,0)"/>
<path d="" fill="#A7A8AF" transform="translate(0,0)"/>
<path d="" fill="#ABADAE" transform="translate(0,0)"/>
<path d="" fill="#6760A4" transform="translate(0,0)"/>
<path d="" fill="#7B7F82" transform="translate(0,0)"/>
<path d="" fill="#462631" transform="translate(0,0)"/>
<path d="" fill="#7F8386" transform="translate(0,0)"/>
<path d="" fill="#685058" transform="translate(0,0)"/>
<path d="" fill="#4C2F39" transform="translate(0,0)"/>
<path d="" fill="#5E6061" transform="translate(0,0)"/>
<path d="" fill="#5E4B52" transform="translate(0,0)"/>
<path d="" fill="#AAACAB" transform="translate(0,0)"/>
<path d="" fill="#5E4B4F" transform="translate(0,0)"/>
<path d="" fill="#A6AAA9" transform="translate(0,0)"/>
<path d="" fill="#423C3C" transform="translate(0,0)"/>
<path d="" fill="#AEB7B6" transform="translate(0,0)"/>
<path d="" fill="#413C3E" transform="translate(0,0)"/>
<path d="" fill="#9CABA1" transform="translate(0,0)"/>
<path d="" fill="#313F38" transform="translate(0,0)"/>
<path d="" fill="#465752" transform="translate(0,0)"/>
<path d="" fill="#465149" transform="translate(0,0)"/>
<path d="" fill="#5F2640" transform="translate(0,0)"/>
<path d="" fill="#929CA4" transform="translate(0,0)"/>
<path d="" fill="#FDFFFF" transform="translate(0,0)"/>
<path d="" fill="#010806" transform="translate(0,0)"/>
</svg>
